<svg width="120" height="90" viewBox="0 0 120 90" fill="none" xmlns="http://www.w3.org/2000/svg">
<path d="M4.50873 15.2195C9.38829 7.01185 18.9256 6.80213e-06 29.7198 6.3303e-06C40.514 0.0543577 52.4911 7.12056 64.0246 9.78397C75.632 12.4474 86.8698 10.6537 96.2593 13.0453C105.723 15.4369 113.412 22.0139 117.182 29.7867C120.879 37.5052 120.657 46.3651 118.143 55.225C115.556 64.085 110.676 72.8905 101.952 78.7609C93.302 84.5769 80.8813 87.5121 68.0909 89.0341C55.2266 90.556 41.9926 90.6104 31.5681 86.7511C21.1436 82.8376 13.6025 74.956 8.72289 66.8027C3.7694 58.7038 1.55141 50.3331 0.516356 41.5275C-0.518703 32.7219 -0.370837 23.3728 4.50873 15.2195Z" fill="#E6E6FC"/>
</svg>
