<svg width="16" height="28" viewBox="0 0 16 28" fill="none" xmlns="http://www.w3.org/2000/svg">
<path d="M10.9485 13.8431L0.63601 24.1556C0.437031 24.3478 0.278317 24.5777 0.169131 24.8319C0.0599458 25.0861 0.00247433 25.3594 7.0545e-05 25.6361C-0.00233324 25.9127 0.0503802 26.187 0.155132 26.4431C0.259884 26.6991 0.414578 26.9317 0.610188 27.1273C0.805798 27.3229 1.03841 27.4776 1.29444 27.5824C1.55047 27.6871 1.8248 27.7398 2.10143 27.7374C2.37805 27.735 2.65143 27.6775 2.9056 27.5684C3.15978 27.4592 3.38966 27.3005 3.58184 27.1015L15.3673 15.3161C15.7578 14.9254 15.9772 14.3956 15.9772 13.8431C15.9772 13.2907 15.7578 12.7609 15.3673 12.3702L3.58184 0.584816C3.18892 0.20532 2.66267 -0.00466795 2.11643 7.87555e-05C1.57018 0.00482546 1.04766 0.223927 0.661388 0.610194C0.275121 0.996461 0.0560196 1.51899 0.0512729 2.06523C0.0465262 2.61147 0.256514 3.13773 0.63601 3.53065L10.9485 13.8431Z" fill="#9191FC"/>
</svg>
