<svg width="40" height="40" viewBox="0 0 40 40" fill="none" xmlns="http://www.w3.org/2000/svg">
<path d="M22.3062 19.628C22.19 19.628 22.0762 19.6464 21.9672 19.6818C21.7847 19.7397 21.5678 18.826 20.9455 17.9321C20.5425 17.3536 20.0103 17 19.4283 17C18.8558 17 18.3331 17.3395 17.9324 17.901C17.3137 18.7694 17.1075 19.6959 16.9629 19.6591C16.8763 19.6379 16.7874 19.6266 16.6974 19.6266C15.7598 19.6266 15 20.8303 15 22.3126C15 23.7977 15.7598 25 16.6974 25C17.015 25 17.6835 24.7539 17.987 24.6209C18.8344 24.2475 20.3777 24.2871 20.9704 24.5785C21.2892 24.7355 21.9672 25 22.3038 25C23.2402 25 24 23.7977 24 22.3126C24.0024 20.8317 23.2438 19.628 22.3062 19.628Z" fill="#605DD3"/>
<path d="M15.8587 16.8689C15.4517 15.5336 14.2895 14.7332 13.263 15.0815C12.2364 15.4283 11.7343 16.793 12.1413 18.1297C12.5469 19.4664 13.7105 20.2668 14.7357 19.9185C15.7636 19.5703 16.2657 18.2056 15.8587 16.8689Z" fill="#605DD3"/>
<path d="M17.4159 15.9709C18.4961 15.7409 19.186 14.2264 18.9556 12.585C18.7265 10.9437 17.6639 9.79936 16.5837 10.0294C15.5035 10.258 14.8149 11.774 15.044 13.4153C15.2744 15.0552 16.3357 16.1995 17.4159 15.9709Z" fill="#605DD3"/>
<path d="M25.7361 15.0815C24.7093 14.7332 23.5468 15.5336 23.1412 16.8689C22.7341 18.207 23.2377 19.5703 24.2631 19.9185C25.2899 20.2668 26.4524 19.4664 26.8594 18.1297C27.2651 16.7944 26.7629 15.4297 25.7361 15.0815Z" fill="#605DD3"/>
<path d="M21.5847 15.9709C22.6652 16.1995 23.7258 15.0563 23.9558 13.4151C24.1858 11.7738 23.4957 10.2592 22.4153 10.0291C21.3348 9.80046 20.2742 10.9437 20.0442 12.5849C19.8142 14.2262 20.5043 15.7423 21.5847 15.9709Z" fill="#605DD3"/>
<path d="M19.5 2C15.1239 2 10.9271 3.51714 7.83274 6.21766C4.73839 8.91819 3 12.5809 3 16.4C3 19.8056 3.82912 22.034 6.09375 24.5L19.5 38L32.9062 24.5C35.1709 22.034 36 19.8056 36 16.4C36 12.5809 34.2616 8.91819 31.1673 6.21766C28.0729 3.51714 23.8761 2 19.5 2Z" stroke="#EFE05D" stroke-width="2" stroke-linecap="round" stroke-linejoin="round"/>
</svg>
