<svg width="83" height="53" viewBox="0 0 83 53" fill="none" xmlns="http://www.w3.org/2000/svg">
<path d="M19.0196 36.9703C19.9445 36.2394 20.1479 35.2327 20.0272 34.0915C19.8688 32.5967 19.5447 31.1515 19.4477 29.6425C19.2325 26.2946 19.7599 23.0221 21.5009 20.1009C23.3222 17.0453 26.1134 15.7485 29.5621 15.3359C33.0581 14.9163 36.592 15.1002 40.1022 14.9516C43.532 14.8055 46.8719 14.0416 50.2804 13.6832C53.3862 13.3555 56.1631 12.8038 58.7036 10.8964C60.8442 9.28842 62.7696 7.39046 64.5011 5.35576C65.7831 3.84918 66.9256 1.897 69.1254 1.70131C70.5919 1.57163 72.2666 1.85927 73.6764 2.23886C74.8567 2.55716 76.0181 2.96032 76.3162 4.23584C76.6402 5.6151 77.0305 6.43087 78.173 7.33859C78.7265 7.77712 79.3273 8.11428 79.9683 8.40663C80.5005 8.64948 81.4088 8.81923 81.4987 9.47231C81.5247 9.26955 81.5508 9.06679 81.5791 8.86403C80.6164 10.7667 79.3462 12.3888 77.0187 12.2921C75.3511 12.2214 73.693 12.153 72.0254 12.1318C71.1029 12.12 71.1029 13.5512 72.0254 13.5606C74.3576 13.5889 77.04 14.4612 79.2776 13.5794C80.6543 13.0372 81.5862 11.988 82.3361 10.7573C82.8612 9.89671 83.3271 9.17053 82.6956 8.22037C82.2958 7.62151 81.6619 7.44469 81.028 7.17591C80.0819 6.7751 79.0908 6.29177 78.4119 5.49251C77.5887 4.52349 77.9223 3.09 76.9548 2.12805C75.914 1.09302 74.2748 0.666273 72.8793 0.397494C71.2897 0.0933495 69.414 -0.248515 67.8434 0.26075C65.2746 1.09302 64.0138 3.32813 62.3533 5.2473C59.7798 8.22509 56.8822 11.0449 52.8871 11.8065C50.8339 12.1978 48.7382 12.2827 46.6756 12.6057C44.2464 12.9853 41.9046 13.3908 39.4375 13.4592C35.1467 13.5747 30.6312 13.1857 26.454 14.3905C22.1845 15.6212 19.6464 19.2875 18.5134 23.4158C17.922 25.566 17.896 27.8271 18.161 30.0315C18.2863 31.0807 18.4755 32.1228 18.7736 33.139C19.1402 34.391 19.5991 35.6146 18.8114 36.8123C18.7215 36.9443 18.9108 37.0552 19.0196 36.9703Z" fill="#A0A3BD"/>
<path d="M69.0212 3.42382C69.2706 5.38768 69.4458 7.50185 70.1602 9.34251C70.3264 9.77125 70.9577 10.7446 70.6522 11.1782C70.5084 11.3803 69.9108 11.506 69.7221 11.5257C68.6123 11.6341 68.0192 10.6509 67.4599 9.7885C66.9274 8.9655 66.267 7.84189 65.3931 7.40821C64.4046 6.91786 63.8587 7.8961 64.0317 8.87926C64.1912 9.78604 65.4537 9.54703 65.465 8.66735C65.5301 8.17947 65.292 8.25586 64.7528 8.89898C64.8539 8.96797 64.946 9.04928 65.0292 9.14538C65.2179 9.4115 65.474 9.6382 65.6784 9.892C66.1142 10.4341 66.4669 11.0501 66.905 11.5873C67.9496 12.871 69.3716 13.3762 70.8453 12.6986C72.1798 12.0825 72.2225 10.7815 71.6541 9.44353C70.7959 7.42793 70.724 5.02546 69.5851 3.16756C69.3806 2.82751 68.974 3.05175 69.0212 3.42382Z" fill="#A0A3BD"/>
<path d="M18.7558 36.4835C17.8722 37.3144 17.1585 38.3173 16.4254 39.2748C15.7869 40.1105 14.8159 40.9964 14.4372 41.9778C14.1751 42.6535 14.4591 43.2362 14.527 43.9024C14.578 44.3799 14.4931 44.9196 14.4688 45.4067C14.4251 46.2663 14.396 47.1283 14.3474 47.9879C14.2964 48.8713 14.044 49.7405 14.0027 50.6144C13.9202 52.3933 15.7408 52.9927 17.241 52.9998C18.5179 53.0046 20.7707 52.9163 20.8046 51.1994C20.8362 49.5949 18.6174 49.0504 18.5665 47.5222C18.4718 44.6832 21.1348 42.3765 22.8462 40.4448C24.225 38.8904 25.951 37.6559 27.24 36.0298C27.8761 35.2275 28.3421 34.344 28.6601 33.3746C29.0194 32.281 29.2864 30.9104 30.4978 30.428C31.3523 30.089 31.0464 28.7829 30.107 29.0312C28.6189 29.4228 27.9367 30.7576 27.4561 32.0899C27.1284 32.9997 26.8613 33.8784 26.2884 34.6807C25.7058 35.4973 24.9436 36.1659 24.2032 36.8345C22.0281 38.7949 20.2172 41.0298 18.5009 43.389C17.3017 45.0366 16.4205 47.804 17.8989 49.4922C18.2412 49.8838 19.6661 50.8532 19.1199 51.4072C18.7825 51.7486 17.0541 51.6603 16.5929 51.5958C15.9132 51.5003 15.4058 51.2639 15.3912 50.538C15.384 50.1942 15.549 49.8074 15.5952 49.4611C15.6996 48.6684 15.7117 47.8565 15.7432 47.059C15.7942 45.8078 15.952 44.5041 15.6316 43.2887C15.3184 42.1115 16.3016 41.2615 16.923 40.3278C17.6926 39.1721 18.4912 37.995 19.1272 36.7629C19.2437 36.5336 18.9549 36.2972 18.7558 36.4835Z" fill="#A0A3BD"/>
<path d="M30.0595 30.0132C31.7007 29.0062 34.1898 29.609 35.9379 30.0108C38.0138 30.4883 40.0113 31.2211 41.985 32.0058C45.4479 33.3816 49.6139 35.8328 53.4877 34.7171C54.2834 34.4878 54.1005 33.3508 53.2953 33.3106C51.2575 33.2043 49.4927 33.1925 47.5356 32.507C45.1581 31.6749 42.8709 30.6089 40.5005 29.7579C38.6313 29.0866 36.7241 28.5169 34.7551 28.2167C32.9476 27.9402 30.7483 27.7204 29.2211 28.933C28.6059 29.4223 29.4016 30.415 30.0595 30.0132Z" fill="#A0A3BD"/>
<path d="M55.2313 28.0662C52.0613 30.6785 52.969 35.7149 53.7434 39.2123C54.1996 41.2795 54.8219 43.3008 55.2734 45.3679C55.5143 46.4678 55.4629 47.5557 55.6079 48.6556C55.7015 49.3599 56.0009 50.0256 56.0711 50.7372C56.291 52.9321 58.0713 53.2047 59.992 52.8936C61.1688 52.703 62.7245 52.3677 62.9655 50.9543C63.2392 49.3454 61.8332 48.7183 60.6307 48.1973C59.709 47.7993 59.2504 49.4033 60.2119 49.7675C60.605 49.9171 61.9361 50.3971 61.1641 51.0556C60.8506 51.3233 59.9967 51.3812 59.6084 51.4101C59.0141 51.4536 58.0339 51.3233 57.7719 50.9808C57.8982 51.1448 57.814 51.1786 57.8023 50.8867C57.7883 50.6021 57.7368 50.3126 57.6853 50.0304C57.4327 48.6797 57.29 47.3482 57.0864 45.9902C56.2162 40.1892 53.1632 34.1277 55.6103 28.3677C55.7202 28.1048 55.4488 27.8853 55.2313 28.0662Z" fill="#A0A3BD"/>
<path d="M60.5277 49.7712C60.9353 47.8871 60.417 45.7042 60.3616 43.7819C60.3163 42.2134 60.3943 40.6474 60.5554 39.0861C60.7693 36.9797 61.6676 35.1482 62.8503 33.3765C63.5498 32.3293 64.9187 30.9043 64.9992 29.6084C65.0244 29.1852 64.433 28.8242 64.0531 29.092C63.6454 29.3789 63.4441 29.7399 63.195 30.1536C62.6112 31.1267 61.9771 32.0663 61.3581 33.0179C60.2308 34.7513 59.3853 36.6234 59.1512 38.6581C58.9625 40.3078 58.9751 41.96 59.0556 43.6169C59.1487 45.587 59.0883 48.0258 59.9263 49.8477C60.037 50.0939 60.4748 50.0222 60.5277 49.7712Z" fill="#A0A3BD"/>
<path d="M61.1744 32.9987C62.5061 32.8339 63.9061 32.1492 65.033 31.4319C66.4307 30.543 67.1888 29.3708 67.8216 27.8319C68.4704 26.2512 68.7527 24.5754 69.3787 22.9854C69.8682 21.7436 70.394 20.6063 70.5898 19.2879C70.7514 18.2016 70.9267 17.12 71.1339 16.043C71.3206 15.0774 71.4617 13.9447 71.9147 13.0627C72.3267 12.2619 71.1339 11.5493 70.7241 12.3524C69.8545 14.0561 69.6815 16.2519 69.3924 18.1204C69.1852 19.462 68.9325 20.4113 68.4363 21.681C68.1403 22.44 67.7761 23.2036 67.5371 23.9835C67.3504 24.5893 67.2684 25.2323 67.0772 25.8427C66.5832 27.4327 65.8593 28.9507 64.5868 30.0346C63.4781 30.977 61.9962 31.555 61.0469 32.6761C60.9535 32.7851 61.0014 33.0196 61.1744 32.9987Z" fill="#A0A3BD"/>
<path d="M0.206346 30.9637C2.44484 31.2262 4.79082 30.0216 6.61105 28.7556C8.62289 27.3523 10.3917 25.5809 12.1255 23.8267C13.8032 22.1265 15.5089 20.4263 17.4483 19.0524C18.4554 18.3384 19.5256 17.6932 20.6729 17.2565C21.8809 16.7977 23.0352 16.7781 24.2853 16.6137C25.0237 16.518 25.3485 15.3232 24.4769 15.122C22.3973 14.6411 19.9906 15.6667 18.2031 16.7143C16.1258 17.9312 14.2962 19.5872 12.5765 21.2972C10.8287 23.0343 9.19536 24.9038 7.35644 26.5402C6.30963 27.47 5.18804 28.3385 3.98 29.0231C2.76262 29.7149 1.4541 30.0682 0.152601 30.527C-0.0857352 30.6104 -0.0273169 30.9367 0.206346 30.9637Z" fill="#A0A3BD"/>
<path d="M0.0511024 30.2972C0.886604 31.0367 2.6559 31.0657 3.78137 30.9476C4.95107 30.8254 6.3149 30.436 6.93661 29.5308C7.1676 29.1932 6.72037 28.8949 6.34931 29.0357C5.21892 29.4624 4.35885 29.9927 3.07611 30.0921C2.09562 30.1688 1.08073 29.8746 0.134652 30.0383C-0.00787505 30.0611 -0.0398198 30.2185 0.0511024 30.2972Z" fill="#A0A3BD"/>
<path d="M20.7498 19.0255C19.9288 19.6314 19.383 20.8187 18.9159 21.7068C17.4636 24.4829 16.4483 27.1909 13.6361 28.7553C13.9553 29.1884 14.2721 29.6239 14.5913 30.057C15.2411 29.2103 15.6019 28.1592 15.8262 27.1081C15.9904 26.3417 15.1024 25.7262 14.5427 26.3223C13.9761 26.9257 13.4488 27.6069 12.8637 28.1738C11.8277 29.1762 10.5072 30.0619 9.28377 30.7894C9.52891 31.1251 9.77636 31.4609 10.0215 31.7966C11.1339 30.6117 12.4636 29.1178 12.6024 27.3879C12.6371 26.9646 12.0751 26.7505 11.8138 27.0449C10.7847 28.1982 10.1764 29.7066 9.15889 30.8915C8.71255 31.4122 9.28608 32.3003 9.89662 31.8988C11.0946 31.1105 12.1468 30.1446 13.2522 29.2273C13.9576 28.641 14.7531 28.1738 15.4724 27.5923C15.0954 27.2882 14.7208 26.9841 14.3438 26.6799C14.1912 27.276 14.0224 27.8624 13.7425 28.4098C13.6847 28.5242 13.3124 29.1008 13.4743 28.8891C12.9285 29.5996 13.5968 30.6531 14.4294 30.1908C17.045 28.7383 18.2845 26.023 19.3692 23.2785C19.9034 21.9282 20.5162 20.5997 20.9903 19.225C21.0435 19.0839 20.8654 18.9404 20.7498 19.0255Z" fill="#A0A3BD"/>
<path d="M11.6578 27.0163C10.3631 27.5181 9.26514 28.58 8.05302 29.2709C6.85546 29.9521 5.42229 30.1824 4.27332 30.8976C3.80693 31.1885 3.95753 32.0443 4.57209 31.9982C5.91782 31.8964 7.35829 31.043 8.49754 30.357C9.71453 29.6248 11.223 28.6406 11.9663 27.4163C12.0805 27.2272 11.8862 26.9266 11.6578 27.0163Z" fill="#A0A3BD"/>
<path d="M74.1892 5.97787C74.5688 6.05047 74.9131 5.92999 75.2384 5.82496C75.4336 5.76009 75.6125 5.68594 75.8402 5.66432C76.1086 5.63806 76.3716 5.67513 76.6454 5.64732C77.0168 5.60871 77.109 5.31678 76.8623 5.17931C76.3933 4.91672 75.7535 4.97542 75.2167 5.14533C74.7721 5.28589 74.5362 5.5562 74.1269 5.70448C73.929 5.77399 73.9723 5.93617 74.1892 5.97787Z" fill="#A0A3BD"/>
<path d="M75.5233 5.52634C75.2984 5.38227 75.0534 5.59037 75.0098 5.97724C74.9561 6.45216 75.1256 7.02578 75.4747 6.9991C75.7717 6.97776 75.9782 6.62291 75.9983 6.15867C76.0134 5.83317 75.9245 5.49432 75.8405 5.20617C75.7298 4.82998 75.3219 5.00874 75.3421 5.41962C75.3488 5.55035 75.3471 5.67575 75.3438 5.80648C75.3404 5.87052 75.3404 5.87319 75.3438 5.81716C75.3404 5.84651 75.337 5.87852 75.332 5.90787C75.327 5.93722 75.3219 5.9639 75.3169 5.99325C75.3068 6.04394 75.3052 6.04661 75.3152 6.00125C75.3219 5.96657 75.3337 5.93455 75.3521 5.91054C75.3924 5.84651 75.4428 5.81449 75.5032 5.80915C75.5821 5.8305 75.5636 5.82783 75.4478 5.80115C75.5418 5.80382 75.6089 5.85718 75.6509 5.96924C75.5888 5.84117 75.577 5.81716 75.6157 5.8972C75.6039 5.87052 75.5922 5.84384 75.5821 5.8145C75.5619 5.7638 75.5384 5.71311 75.5217 5.66241C75.5317 5.72111 75.5418 5.77981 75.5519 5.83584C75.5485 5.79848 75.5603 5.77447 75.5754 5.73712C75.6123 5.65174 75.572 5.55836 75.5233 5.52634Z" fill="#A0A3BD"/>
<path d="M7.89671 28.0086C7.07633 28.4389 6.40168 29.1888 5.60558 29.6835C4.81219 30.1731 3.93244 30.5519 3.19032 31.1111C2.66679 31.5054 3.33335 32.1985 3.86498 31.946C4.76901 31.5182 5.59209 30.789 6.32611 30.1396C6.9279 29.6062 7.81305 28.8847 7.99925 28.0807C8.00735 28.0266 7.94798 27.9802 7.89671 28.0086Z" fill="#A0A3BD"/>
<path d="M22.0596 40.7152C21.7686 42.1028 22.6247 43.6903 22.8798 45.0565C23.1016 46.237 22.763 48.0744 23.5284 49.1073C24.146 49.9403 25.9248 49.9927 26.8691 49.9998C27.892 50.0094 29.0938 49.5738 29.1749 48.3862C29.213 47.8269 28.9436 47.3104 28.5239 46.9486C28.0804 46.5678 27.5892 46.6059 27.1242 46.3703C26.1513 45.8776 26.3111 44.709 26.3445 43.8022C26.385 42.774 26.5019 41.7125 26.8643 40.7414C27.4723 39.1158 28.3045 37.614 28.8553 35.948C29.4252 34.22 29.9689 32.3755 29.9999 30.5428C30.0118 29.7931 28.9603 29.8455 28.8673 30.5428C28.4595 33.6345 27.5606 36.5882 26.1943 39.3919C25.6387 40.532 25.3573 41.7268 25.2595 42.9882C25.1785 44.0402 25.0402 45.392 25.7102 46.2846C25.9177 46.5607 26.168 46.832 26.4542 47.0295C27.0288 47.4294 28.0303 47.3699 27.6536 48.3076C27.427 48.8693 27.253 48.8193 26.7117 48.8027C26.3326 48.7908 25.9272 48.7146 25.5528 48.6575C24.7922 48.5409 24.3653 48.3576 24.2771 47.546C24.1364 46.2441 24.1174 45.0612 23.7072 43.795C23.3758 42.7716 23.0062 41.4316 22.2241 40.67C22.1716 40.6248 22.0739 40.6414 22.0596 40.7152Z" fill="#A0A3BD"/>
<path d="M63.8079 47.998C64.2872 47.8903 64.5969 48.1836 64.7846 48.6761C64.8321 48.7999 65.0107 49.2762 64.9293 49.4134C64.8163 49.6018 64.3799 49.5829 64.2194 49.5964C63.315 49.6771 62.4716 49.4887 61.5763 49.3919C60.9003 49.3192 60.7827 50.5813 61.418 50.7804C62.3948 51.0872 63.5004 51.0253 64.4975 50.88C65.2029 50.775 65.9038 50.6055 65.9897 49.6206C66.1276 48.0491 64.857 46.3323 63.5456 47.2633C63.2019 47.5028 63.4393 48.0814 63.8079 47.998Z" fill="#A0A3BD"/>
<path d="M64.7985 47.2785C63.6402 47.0702 63.8673 44.7389 63.7739 43.8656C63.6427 42.6396 63.5165 41.4113 63.4408 40.1806C63.2869 37.686 63.3197 35.2151 63.784 32.7513C63.9253 32.0011 62.709 31.6721 62.5525 32.4318C61.8534 35.7926 61.8989 39.1534 62.2421 42.5497C62.3834 43.9508 62.2825 45.8726 62.9285 47.1649C63.3071 47.9199 64.2155 48.3033 64.9196 47.7092C65.0685 47.5862 65.0004 47.314 64.7985 47.2785Z" fill="#A0A3BD"/>
<path d="M59.0008 40.1135C59.4064 43.3225 59.7519 46.7096 61.1227 49.7306C61.3312 50.1894 62.128 50.0239 61.9823 49.5225C61.0685 46.3561 59.9004 43.3125 59.2636 40.0809C59.2379 39.9556 58.9837 39.9831 59.0008 40.1135Z" fill="#A0A3BD"/>
<path d="M81.4345 8.06712C80.7623 7.83889 80.126 8.21452 80.0131 8.86356C79.8925 9.56965 80.6315 10.3376 81.0856 10.8416C81.4833 11.2814 82.2325 10.7156 81.9297 10.2377C81.6706 9.82641 80.3749 8.69238 81.4345 8.40947C81.627 8.35954 81.6064 8.12655 81.4345 8.06712Z" fill="#A0A3BD"/>
</svg>
