<svg width="72" height="72" viewBox="0 0 72 72" fill="none" xmlns="http://www.w3.org/2000/svg">
<rect x="1" y="29" width="70" height="15" rx="7.5" fill="white" stroke="#A0A3BD" stroke-width="2"/>
<rect x="43" y="1" width="70" height="15" rx="5" transform="rotate(90 43 1)" fill="white" stroke="#A0A3BD" stroke-width="2"/>
<rect x="27" y="30" width="17" height="13" fill="white"/>
<path d="M38.3062 38.628C38.19 38.628 38.0762 38.6464 37.9672 38.6818C37.7847 38.7397 37.5678 37.826 36.9455 36.9321C36.5425 36.3536 36.0103 36 35.4283 36C34.8558 36 34.3331 36.3395 33.9324 36.901C33.3137 37.7694 33.1075 38.6959 32.9629 38.6591C32.8763 38.6379 32.7874 38.6266 32.6974 38.6266C31.7598 38.6266 31 39.8303 31 41.3126C31 42.7977 31.7598 44 32.6974 44C33.015 44 33.6835 43.7539 33.987 43.6209C34.8344 43.2475 36.3777 43.2871 36.9704 43.5785C37.2892 43.7355 37.9672 44 38.3038 44C39.2402 44 40 42.7977 40 41.3126C40.0024 39.8317 39.2438 38.628 38.3062 38.628Z" fill="#605DD3"/>
<path d="M31.8587 35.8689C31.4517 34.5336 30.2895 33.7332 29.263 34.0815C28.2364 34.4283 27.7343 35.793 28.1413 37.1297C28.5469 38.4664 29.7105 39.2668 30.7357 38.9185C31.7636 38.5703 32.2657 37.2056 31.8587 35.8689Z" fill="#605DD3"/>
<path d="M33.4159 34.9709C34.4961 34.7409 35.186 33.2264 34.9556 31.585C34.7265 29.9437 33.6639 28.7994 32.5837 29.0294C31.5035 29.258 30.8149 30.774 31.044 32.4153C31.2744 34.0552 32.3357 35.1995 33.4159 34.9709Z" fill="#605DD3"/>
<path d="M41.7361 34.0815C40.7093 33.7332 39.5468 34.5336 39.1412 35.8689C38.7341 37.207 39.2377 38.5703 40.2631 38.9185C41.2899 39.2668 42.4524 38.4664 42.8594 37.1297C43.2651 35.7944 42.7629 34.4297 41.7361 34.0815Z" fill="#605DD3"/>
<path d="M37.5847 34.9709C38.6652 35.1995 39.7258 34.0563 39.9558 32.4151C40.1858 30.7738 39.4957 29.2592 38.4153 29.0291C37.3348 28.8005 36.2742 29.9437 36.0442 31.5849C35.8142 33.2262 36.5043 34.7423 37.5847 34.9709Z" fill="#605DD3"/>
</svg>
