<svg width="943" height="1075" viewBox="0 0 943 1075" fill="none" xmlns="http://www.w3.org/2000/svg">
<path d="M870.13 315.716L870.129 315.714C859.663 293.027 849.806 270.498 840.196 248.535C816.3 193.916 793.933 142.795 767.529 101.443C730.464 43.3929 685.283 4.3236 616.472 1.63584V1.63582L616.466 1.63561C582.317 0.517016 539.316 10.1109 492.463 27.6758C445.593 45.247 394.798 70.8215 345.038 101.733C245.538 163.542 150.052 246.766 98.3521 330.158L98.3502 330.161C-4.11541 496.829 -15.0046 651.063 16.8586 794.576C32.8108 866.871 72.4673 933.341 123.104 983.189C173.733 1033.03 235.411 1066.32 295.454 1072.13C415.219 1083.73 578.474 1039.87 691.255 972.149C804.107 904.38 866.437 812.708 914.624 722.75C939.266 677.555 946.395 615.611 938.261 545.119C930.125 474.608 906.706 395.443 870.13 315.716Z" stroke="#9191FC" stroke-width="2"/>
</svg>
