<svg width="150" height="150" viewBox="0 0 150 150" fill="none" xmlns="http://www.w3.org/2000/svg">
<path d="M119.547 30.451C118.943 29.8497 117.965 29.8497 117.362 30.451L98.7094 49.066L96.3848 46.7479C96.0953 46.459 95.7017 46.2966 95.2916 46.2966C94.8815 46.2966 94.4889 46.459 94.1983 46.7489L88.0015 52.9354L83.2844 48.2282C82.9948 47.9393 82.6012 47.7769 82.1911 47.7769C81.781 47.7769 81.3885 47.9393 81.0979 48.2282L74.4199 54.8907C74.4168 54.8938 74.4137 54.8938 74.4106 54.8968C74.4075 54.8999 74.4075 54.903 74.4044 54.9061L65.6121 63.679C65.6069 63.6842 65.6007 63.6852 65.5956 63.6893C65.5904 63.6934 65.5894 63.7006 65.5853 63.7058L56.8053 72.4653C56.7991 72.4715 56.7908 72.4725 56.7857 72.4787C56.7805 72.4849 56.7785 72.4921 56.7723 72.4982L47.9974 81.2527C47.9902 81.2599 47.9809 81.2609 47.9737 81.2681C47.9665 81.2753 47.9645 81.2845 47.9583 81.2917L40.9876 88.2461C40.6981 88.535 40.5353 88.9277 40.5353 89.3369C40.5353 89.745 40.6981 90.1377 40.9876 90.4276L45.7058 95.1337L37.3575 103.461L32.6383 98.7513C32.0345 98.1489 31.0567 98.1489 30.4529 98.7513C29.849 99.3537 29.849 100.329 30.4529 100.932L43.0876 113.538C43.0896 113.54 43.0907 113.543 43.0927 113.546C43.0948 113.549 43.0979 113.549 43.101 113.551L49.1113 119.549C49.4132 119.85 49.8089 120 50.2045 120C50.6002 120 50.9959 119.85 51.2978 119.549C51.9016 118.946 51.9016 117.971 51.2978 117.368L46.3715 112.456L54.7218 104.128L59.4431 108.838C59.745 109.139 60.1406 109.289 60.5363 109.289C60.932 109.289 61.3277 109.139 61.6296 108.838L101.736 68.8201C102.34 68.2176 102.34 67.2421 101.736 66.6397L97.0196 61.9345L103.216 55.7408C103.819 55.1384 103.818 54.1629 103.215 53.5604L100.895 51.2474L119.547 32.6314C120.151 32.029 120.151 31.0524 119.547 30.451ZM44.186 110.274L39.542 105.641L47.8903 97.3131L52.5343 101.946L44.186 110.274ZM60.5363 105.566L48.9938 94.0523C48.9907 94.0492 48.9897 94.0441 48.9866 94.041C48.9835 94.0379 48.9784 94.0369 48.9753 94.0338L44.2664 89.3369L49.0711 84.5433L54.8928 90.3494C55.1947 90.6506 55.5904 90.8007 55.9861 90.8007C56.3818 90.8007 56.7774 90.6506 57.0793 90.3494C57.6821 89.747 57.6821 88.7704 57.0793 88.169L51.2576 82.3629L57.883 75.7529L63.7007 81.557C64.0026 81.8582 64.3982 82.0083 64.7939 82.0083C65.1896 82.0083 65.5853 81.8582 65.8872 81.557C66.491 80.9546 66.491 79.978 65.8872 79.3766L60.0696 73.5725L66.695 66.9625L72.5188 72.7676C72.8207 73.0688 73.2154 73.2189 73.611 73.2189C74.0067 73.2189 74.4024 73.0688 74.7043 72.7665C75.3071 72.1641 75.3071 71.1875 74.7032 70.5862L68.8805 64.7821L75.508 58.17L81.3266 63.9761C81.6275 64.2773 82.0242 64.4274 82.4199 64.4274C82.8156 64.4274 83.2112 64.2773 83.5131 63.9761C84.1169 63.3747 84.1169 62.3981 83.5131 61.7957L77.6945 55.9896L82.1942 51.4993L86.9042 56.1993C86.9073 56.2024 86.9073 56.2055 86.9104 56.2075L93.7439 63.0242L93.747 63.0273L98.459 67.7293L60.5363 105.566ZM94.8341 59.7521L90.188 55.1158L95.2926 50.019L97.61 52.3299C97.6121 52.332 97.6131 52.3361 97.6151 52.3382C97.6172 52.3402 97.6213 52.3412 97.6234 52.3433L99.9377 54.6512L94.8341 59.7521Z" fill="#605DD3"/>
</svg>
