<svg width="50" height="48" viewBox="0 0 50 48" fill="none" xmlns="http://www.w3.org/2000/svg">
<g clip-path="url(#clip0_38_2)">
<path opacity="0.5" d="M23.9999 46C36.1501 46 45.9999 36.1503 45.9999 24C45.9999 11.8497 36.1501 2 23.9999 2C11.8496 2 1.99988 11.8497 1.99988 24C1.99988 36.1503 11.8496 46 23.9999 46Z" fill="#F4F2FF"/>
<path d="M23.9469 10C23.4305 10 22.9353 10.2108 22.5701 10.586C22.205 10.9611 21.9999 11.47 21.9999 12.0006V24.0042C21.9999 24.0225 22.0021 24.04 22.0023 24.058C22.0038 24.0982 22.005 24.1385 22.0084 24.1785C22.0108 24.2095 22.0152 24.24 22.0191 24.2706C22.0235 24.3031 22.0276 24.3353 22.0337 24.3673C22.0453 24.4298 22.0594 24.4918 22.0761 24.5531C22.0935 24.6153 22.1137 24.6765 22.1367 24.7367C22.2081 24.9209 22.305 25.0935 22.4243 25.2493C22.5028 25.3493 22.5898 25.4418 22.6845 25.5257C22.7083 25.5464 22.7332 25.5662 22.7578 25.5859C22.7821 25.605 22.8059 25.6242 22.831 25.6422C22.8626 25.6652 22.8957 25.6862 22.9286 25.7072C22.9439 25.7167 22.9578 25.7275 22.9734 25.7367L33.0905 31.7386C33.5375 31.9997 34.0668 32.0685 34.563 31.9301C35.0592 31.7917 35.4819 31.4572 35.739 30.9997C35.9961 30.5422 36.0666 29.9988 35.9352 29.488C35.8038 28.9773 35.4811 28.5407 35.0376 28.2735L25.8939 22.8494V12.0006C25.8939 11.47 25.6888 10.9611 25.3236 10.586C24.9585 10.2108 24.4633 10 23.9469 10Z" fill="#494FD9"/>
<path d="M49.6635 18.0362C49.682 18.0087 49.698 17.9799 49.7147 17.9517C49.7315 17.9242 49.7487 17.8969 49.7639 17.8686C49.7794 17.8394 49.7927 17.8093 49.8069 17.7796C49.8207 17.7501 49.8354 17.7211 49.8479 17.691C49.8597 17.662 49.8694 17.6328 49.8799 17.6035C49.8914 17.571 49.9039 17.5392 49.9139 17.5062C49.9227 17.4767 49.9291 17.4469 49.9366 17.4172C49.9451 17.3836 49.9544 17.3506 49.9614 17.3166C49.9681 17.2821 49.9721 17.2473 49.9771 17.2126C49.9814 17.1826 49.9871 17.1533 49.9899 17.123C49.9964 17.0572 49.9999 16.9915 49.9999 16.9254V6.92075C49.9999 6.39007 49.7892 5.88112 49.4143 5.50588C49.0393 5.13063 48.5307 4.91981 48.0005 4.91981C47.4702 4.91981 46.9616 5.13063 46.5867 5.50588C46.2117 5.88112 46.001 6.39007 46.001 6.92075V12.0949L40.9315 7.02155C37.5767 3.66733 33.3035 1.38377 28.6521 0.459531C24.0007 -0.464703 19.1799 0.01188 14.7991 1.82904C10.4183 3.6462 6.67416 6.72235 4.03999 10.6686C1.40582 14.6149 -0.00012207 19.2542 -0.00012207 24C-0.00012207 28.7458 1.40582 33.3851 4.03999 37.3314C6.67416 41.2777 10.4183 44.3538 14.7991 46.171C19.1799 47.9881 24.0007 48.4647 28.6521 47.5405C33.3035 46.6162 37.5767 44.3327 40.9315 40.9785C41.119 40.7931 41.268 40.5724 41.37 40.3291C41.472 40.0859 41.5249 39.8248 41.5257 39.5611C41.5264 39.2973 41.4751 39.0359 41.3746 38.7921C41.2741 38.5482 41.1264 38.3267 40.94 38.1401C40.7536 37.9536 40.5322 37.8058 40.2885 37.7053C40.0448 37.6047 39.7837 37.5533 39.5201 37.5541C39.2565 37.555 38.9957 37.6079 38.7526 37.71C38.5096 37.8121 38.2891 37.9612 38.1038 38.1489C35.3076 40.9472 31.7449 42.8529 27.8664 43.6249C23.988 44.397 19.9678 44.0007 16.3144 42.4862C12.6609 40.9717 9.53826 38.4071 7.34128 35.1166C5.1443 31.8261 3.97167 27.9575 3.97167 24C3.97167 20.0425 5.1443 16.1739 7.34128 12.8834C9.53826 9.59291 12.6609 7.02825 16.3144 5.51378C19.9678 3.99931 23.988 3.60304 27.8664 4.37508C31.7449 5.14712 35.3076 7.0528 38.1038 9.85112L43.1736 14.9248H38.0036C37.4733 14.9248 36.9648 15.1356 36.5898 15.5108C36.2148 15.8861 36.0042 16.395 36.0042 16.9257C36.0042 17.4564 36.2148 17.9653 36.5898 18.3406C36.9648 18.7158 37.4733 18.9266 38.0036 18.9266H48C48.0662 18.9266 48.1324 18.9231 48.1982 18.9166C48.2266 18.9139 48.2541 18.9084 48.2821 18.9044C48.3186 18.8994 48.3554 18.8949 48.3916 18.8879C48.4243 18.8814 48.4563 18.8721 48.4886 18.8641C48.5196 18.8563 48.5505 18.8496 48.581 18.8403C48.6133 18.8303 48.644 18.8186 48.6755 18.8073C48.7055 18.7963 48.736 18.7866 48.7657 18.7741C48.7952 18.7618 48.8235 18.7475 48.8522 18.734C48.8825 18.7198 48.9132 18.7063 48.9429 18.6903C48.9709 18.6753 48.9974 18.6582 49.0247 18.642C49.0534 18.6245 49.0824 18.6085 49.1104 18.5897C49.1411 18.5692 49.1699 18.5464 49.1991 18.5247C49.2219 18.5072 49.2456 18.4914 49.2676 18.4732C49.3697 18.3893 49.4633 18.2957 49.547 18.1935C49.565 18.1718 49.5805 18.1488 49.597 18.1265C49.6195 18.0965 49.6427 18.0672 49.6635 18.0365V18.0362Z" fill="#605DD3"/>
</g>
<defs>
<clipPath id="clip0_38_2">
<rect width="50" height="48" fill="white" transform="translate(-0.00012207)"/>
</clipPath>
</defs>
</svg>
