<svg width="150" height="150" viewBox="0 0 150 150" fill="none" xmlns="http://www.w3.org/2000/svg">
<path d="M48.2357 75C53.8867 75 58.5774 70.7761 59.3539 65.2287H91.633C92.3834 70.7401 97.0905 75 102.764 75C108.959 75 114 69.9228 114 63.6825C114 61.055 113.079 58.5137 111.434 56.4995C113.08 54.4852 114 51.945 114 49.3175C114 43.0771 108.959 38 102.764 38C97.1133 38 92.4226 42.2239 91.645 47.7702H59.367C58.6155 42.2588 53.9095 38 48.2357 38C42.0398 38 37 43.0771 37 49.3175C37 51.945 37.9201 54.4863 39.5667 56.4995C37.9201 58.5148 37 61.055 37 63.6825C37 69.9228 42.0398 75 48.2357 75ZM42.9077 55.2861C41.2274 53.7585 40.2627 51.5827 40.2627 49.3175C40.2627 44.8819 43.8397 41.2735 48.2357 41.2735C52.6317 41.2735 56.2087 44.8819 56.2108 49.2302C56.2076 49.2738 56.2032 49.3633 56.2032 49.4069C56.2032 50.3115 56.933 51.0437 57.8346 51.0437H93.1632C94.0637 51.0437 94.7902 50.222 94.7902 49.3175C94.7902 44.8819 98.3673 41.2735 102.763 41.2735C107.159 41.2735 110.736 44.8819 110.736 49.3175C110.736 51.5827 109.772 53.7585 108.091 55.2872C107.75 55.5971 107.555 56.0379 107.555 56.4995C107.555 56.961 107.75 57.4018 108.091 57.7117C109.772 59.2404 110.736 61.4162 110.736 63.6825C110.736 68.1181 107.159 71.7265 102.763 71.7265C98.3673 71.7265 94.7902 68.1181 94.7881 63.7524C94.7913 63.7142 94.7946 63.6302 94.7946 63.592C94.7946 62.6874 94.0637 61.9552 93.1632 61.9552H57.8357C56.9341 61.9552 56.2087 62.778 56.2087 63.6825C56.2087 68.1181 52.6317 71.7265 48.2357 71.7265C43.8397 71.7265 40.2627 68.1181 40.2627 63.6825C40.2627 61.4162 41.2263 59.2404 42.9077 57.7117C43.2492 57.4018 43.4439 56.961 43.4439 56.4995C43.4439 56.0368 43.2492 55.596 42.9077 55.2861Z" fill="#9191FC"/>
<path d="M55.6163 35C56.0126 35 56.41 34.8515 56.7223 34.5523C61.5942 29.8751 68.1192 27.3 75.0944 27.3C81.9726 27.3 88.4352 29.8168 93.2899 34.3851C93.9458 35.0033 94.9688 34.9593 95.573 34.2905C96.1771 33.6206 96.1351 32.5756 95.4793 31.9585C90.0258 26.8259 82.7868 24 75.0944 24C67.2932 24 59.9832 26.893 54.5092 32.1477C53.8588 32.7714 53.8275 33.8164 54.4381 34.4808C54.7558 34.8251 55.1855 35 55.6163 35Z" fill="#605DD3"/>
<path d="M119.723 109.941L97.3514 76.7187C97.064 76.2923 96.5945 76.0275 96.0816 76.0026C95.5785 75.9733 95.0743 76.1957 94.749 76.5918C89.44 83.022 82.4277 86.5627 75.0032 86.5627C67.6633 86.5627 60.6173 83.4517 55.6706 78.0274C55.534 77.8765 55.3757 77.7583 55.2043 77.6714C55.1111 77.5586 55.0016 77.4566 54.8758 77.3698C54.1374 76.8544 53.1246 77.0378 52.6117 77.7778L30.2907 109.923C29.909 110.473 29.9025 111.201 30.2755 111.756C30.6474 112.312 31.3197 112.582 31.9768 112.44L50.2923 108.395L53.6548 125.683C53.786 126.36 54.3293 126.88 55.0102 126.981C55.0916 126.994 55.1707 127 55.251 127C55.8452 127 56.4014 126.673 56.6866 126.136L75.001 91.6583L93.3274 126.136C93.6505 126.746 94.3261 127.086 95.0038 126.981C95.6847 126.879 96.228 126.36 96.3603 125.684L99.726 108.396L118.023 112.44C118.67 112.58 119.344 112.316 119.718 111.766C120.092 111.216 120.094 110.493 119.723 109.941ZM55.971 120.551L53.168 106.137C53.0845 105.706 52.8307 105.327 52.4642 105.086C52.1975 104.911 51.8863 104.819 51.5718 104.819C51.4547 104.819 51.3376 104.832 51.2216 104.857L35.3339 108.366L54.1992 81.1958C59.0711 86.0679 65.5218 89.078 72.3596 89.6986L55.971 120.551ZM98.7989 104.857C98.375 104.763 97.9228 104.844 97.5563 105.086C97.1887 105.327 96.935 105.705 96.8515 106.136L94.0452 120.553L77.6392 89.6889C84.4098 89.0139 90.738 85.7489 95.8311 80.2887L114.751 108.384L98.7989 104.857Z" fill="#605DD3"/>
</svg>
