<svg width="150" height="150" viewBox="0 0 150 150" fill="none" xmlns="http://www.w3.org/2000/svg">
<path d="M64.1228 54.983V70.1228H48.983C47.8923 70.1228 47 71.0151 47 72.1058V80.6325C47 81.7231 47.8923 82.6154 48.983 82.6154C50.0736 82.6154 50.9659 81.7231 50.9659 80.6325V74.0887H66.1058C67.1964 74.0887 68.0887 73.1964 68.0887 72.1058V56.9659H82.9113V72.1058C82.9113 73.1964 83.8036 74.0887 84.8942 74.0887H100.034V88.9113H84.8942C83.8036 88.9113 82.9113 89.8036 82.9113 90.8942V106.034H78.4794C77.3888 106.034 76.4964 106.926 76.4964 108.017C76.4964 109.108 77.3888 110 78.4794 110H84.8942C85.9848 110 86.8772 109.108 86.8772 108.017V92.8673H102.017C103.108 92.8673 104 91.9749 104 90.8843V72.0958C104 71.0052 103.108 70.1129 102.017 70.1129H86.8772V54.983C86.8772 53.8923 85.9848 53 84.8942 53H66.1058C65.0152 53 64.1228 53.8824 64.1228 54.983Z" fill="#605DD3"/>
<path d="M135.416 85.0728L78.3362 28.1686C76.7735 26.6105 74.229 26.6105 72.6663 28.1686L15.586 85.0827C14.8047 85.8618 14.8047 87.1304 15.586 87.9095C16.3674 88.6886 17.6397 88.6886 18.421 87.9095L31.4238 74.9445V118.005C31.4238 120.212 33.217 122 35.4309 122H115.562C117.775 122 119.569 120.212 119.569 118.005V74.9345L132.572 87.8995C132.962 88.289 133.473 88.4888 133.984 88.4888C134.495 88.4888 135.006 88.289 135.396 87.8995C136.198 87.1204 136.198 85.8519 135.416 85.0728ZM115.572 71.2588V118.005H35.4409V71.2588C35.4409 71.1589 35.4208 71.069 35.4108 70.9691L75.5113 30.9954L115.602 70.9691C115.582 71.059 115.572 71.1589 115.572 71.2588Z" fill="#9191FC"/>
<path d="M66.5675 101.489C66.3012 101.489 66.0404 101.525 65.7904 101.594C65.372 101.708 64.8748 99.9198 63.4484 98.1707C62.5246 97.0388 61.3047 96.3469 59.9706 96.3469C58.6583 96.3469 57.4601 97.0111 56.5417 98.1098C55.1234 99.8091 54.6507 101.622 54.3192 101.55C54.1209 101.508 53.9171 101.486 53.7106 101.486C51.5614 101.486 49.8198 103.841 49.8198 106.742C49.8198 109.648 51.5614 112 53.7106 112C54.4388 112 55.9711 111.519 56.6667 111.258C58.6094 110.528 62.1469 110.605 63.5054 111.175C64.2363 111.483 65.7904 112 66.5621 112C68.7085 112 70.4501 109.648 70.4501 106.742C70.4556 103.844 68.7167 101.489 66.5675 101.489Z" fill="#605DD3"/>
<path d="M52.4963 94.8802C51.7057 92.2482 49.4479 90.6707 47.4536 91.3571C45.4593 92.0407 44.4839 94.7307 45.2745 97.3654C46.0625 100 48.323 101.578 50.3146 100.891C52.3116 100.205 53.287 97.5148 52.4963 94.8802Z" fill="#605DD3"/>
<path d="M55.8871 93.3275C58.2183 92.8958 59.7072 90.0536 59.21 86.9733C58.7155 83.893 56.4224 81.7454 54.0912 82.1772C51.76 82.6061 50.2738 85.4511 50.7683 88.5314C51.2655 91.6089 53.5559 93.7565 55.8871 93.3275Z" fill="#605DD3"/>
<path d="M72.5452 91.3542C70.5509 90.6678 68.2931 92.2453 67.5051 94.8772C66.7145 97.5147 67.6926 100.202 69.6842 100.888C71.6785 101.575 73.9363 99.9972 74.727 97.3625C75.5149 94.7306 74.5395 92.0405 72.5452 91.3542Z" fill="#605DD3"/>
<path d="M64.109 93.3468C66.4701 93.7813 68.7877 91.6088 69.2904 88.4898C69.793 85.3708 68.2851 82.4926 65.924 82.0553C63.5629 81.6208 61.2453 83.7933 60.7426 86.9123C60.24 90.0313 61.7479 92.9123 64.109 93.3468Z" fill="#605DD3"/>
</svg>
