<svg width="150" height="150" viewBox="0 0 150 150" fill="none" xmlns="http://www.w3.org/2000/svg">
<path d="M77.0852 53.4018C77.5454 53.4018 78.0163 53.2943 78.455 53.0578C79.5038 52.4989 80.1031 51.3703 79.9854 50.1879L79.0436 40.6646C78.8296 38.4181 76.9675 36.7305 74.7201 36.7305H70.7284C68.8449 35.6019 66.7153 35 64.5 35C62.2848 35 60.1551 35.6019 58.2716 36.7305H54.2799C52.0433 36.7305 50.1812 38.4181 49.9564 40.6646L49.0147 50.2202C48.897 51.4133 49.4962 52.5419 50.545 53.1008C50.9731 53.3265 51.444 53.4448 51.9148 53.4448C52.3857 53.4448 52.8566 53.3265 53.2846 53.0901C53.5736 53.8425 53.9375 54.5304 54.3762 55.1431C54.2478 55.7235 54.1622 56.3039 54.1622 56.8844C54.1622 61.3343 57.972 64 61.6534 64C62.7235 64 63.6867 63.7528 64.4893 63.2906C65.2705 63.7313 66.2337 63.9785 67.3146 63.9785C70.9318 63.9785 74.8272 61.2698 74.8272 56.8844C74.8272 56.3039 74.7416 55.7235 74.6131 55.1431C75.0519 54.5089 75.4265 53.821 75.7154 53.0471C76.1649 53.2835 76.6251 53.4018 77.0852 53.4018ZM74.7843 41.0945L75.3943 47.275L74.4847 46.5119L72.0875 41.073L74.7843 41.0945ZM66.1802 39.5252C66.223 40.1164 66.4477 40.6861 66.8758 41.1375C67.5179 41.8039 67.8176 42.1264 67.946 42.2769L70.7177 48.5541C70.8996 48.9626 71.1779 49.328 71.5203 49.6182L72.1517 50.1449C72.141 50.2202 72.1303 50.2954 72.1196 50.3706C71.3384 49.5215 70.4181 48.8013 69.4014 48.2317C68.1279 46.6838 65.5595 46.6838 64.5321 46.6838C63.5048 46.6838 60.9364 46.6838 59.6629 48.2317C58.6462 48.8013 57.7259 49.5215 56.9446 50.3706C56.9339 50.3062 56.9232 50.2417 56.9125 50.1772L57.5439 49.6505C57.8864 49.3603 58.1646 48.9948 58.3358 48.5971L61.1183 42.2984C61.2467 42.1479 61.5464 41.8147 62.1885 41.1483C62.6165 40.6968 62.8413 40.1271 62.8841 39.536C63.9649 39.2995 65.0886 39.2995 66.1802 39.5252ZM64.5107 50.9618C65.0565 50.9618 65.4311 50.9833 65.6986 51.0048C65.4418 51.5745 64.8853 52.2409 64.5107 52.2409C64.1255 52.2409 63.569 51.5852 63.3228 51.0048C63.5904 50.9833 63.9757 50.9618 64.5107 50.9618ZM54.2906 41.0408H56.9767L54.5475 46.5441L53.6378 47.3073L54.2906 41.0408ZM68.9412 59.3028C67.9139 59.808 66.9721 59.722 66.6511 59.5823C66.6511 59.5178 66.6297 59.4641 66.6297 59.3996C66.619 59.3351 66.619 59.2598 66.5976 59.1953C66.5762 59.1201 66.5548 59.0448 66.5333 58.9804C66.5119 58.9266 66.5012 58.8621 66.4691 58.8084C66.437 58.7224 66.3835 58.6471 66.3407 58.5719C66.3193 58.5397 66.2979 58.4967 66.2765 58.4644C66.2016 58.3569 66.1267 58.2602 66.0304 58.1742L66.0197 58.1635C65.6344 57.7765 65.0993 57.5293 64.5107 57.5293C63.5155 57.5293 62.6914 58.2172 62.4453 59.1416C62.4453 59.1631 62.4346 59.1846 62.4239 59.1953C62.4025 59.2706 62.4025 59.3566 62.3918 59.4425C62.3811 59.4963 62.3704 59.55 62.3704 59.6038C62.0601 59.7435 61.1397 59.8403 60.1016 59.3566C59.3525 59.0019 58.4536 58.2817 58.4536 56.9059C58.4536 55.788 58.9887 54.5734 59.8234 53.563C60.8294 55.2183 62.5416 56.5404 64.5107 56.5404C66.4799 56.5404 68.1921 55.2183 69.1874 53.563C70.0328 54.5734 70.5572 55.788 70.5572 56.9059C70.5679 58.2387 69.6796 58.9481 68.9412 59.3028Z" fill="#605DD3"/>
<path d="M98.818 97.2953C97.6179 97.2953 96.636 98.2765 96.636 99.4758V117.639H29.3641V32.3718H83.762V43.0452C83.762 44.2445 84.7439 45.2257 85.944 45.2257H96.6251V67.3466C96.6251 68.5458 97.607 69.527 98.8071 69.527C100.018 69.527 100.989 68.5458 100.989 67.3466V43.0452C100.989 42.9035 100.978 42.7509 100.945 42.6091C100.924 42.5219 100.891 42.4347 100.869 42.3475C100.858 42.3039 100.847 42.2494 100.825 42.2058C100.782 42.1076 100.727 42.0204 100.684 41.9332C100.662 41.9005 100.651 41.8678 100.629 41.8351C100.553 41.7151 100.455 41.6061 100.356 41.508L87.4824 28.6541C87.3842 28.556 87.2751 28.4579 87.1551 28.3816C87.1223 28.3598 87.0896 28.3489 87.0678 28.3271C86.9805 28.2726 86.8823 28.218 86.7841 28.1744C86.7405 28.1526 86.6968 28.1526 86.6532 28.1308C86.5659 28.0981 86.4677 28.0654 86.3805 28.0436C86.2386 28.0109 86.0968 28 85.944 28H29.3641C26.9529 28 25 29.9515 25 32.3609V117.639C25 120.048 26.9529 122 29.3641 122H96.636C99.0471 122 101 120.048 101 117.639V99.4758C101 98.2765 100.018 97.2953 98.818 97.2953ZM88.1261 35.4572L93.5375 40.8648H88.1261V35.4572Z" fill="#9191FC"/>
<path d="M124.36 64.8316L117.163 57.6341C116.317 56.7886 114.94 56.7886 114.095 57.6341L75.6449 96.082C75.5257 96.2013 75.4281 96.3313 75.3414 96.4722C75.3197 96.5156 75.2981 96.559 75.2764 96.5915C75.2222 96.6999 75.168 96.8083 75.1355 96.9275C75.1246 96.9492 75.1138 96.9709 75.1029 97.0034L72.0894 107.214C71.8617 107.973 72.0786 108.797 72.6314 109.36C73.0433 109.772 73.5962 110 74.1599 110C74.3658 110 74.5718 109.967 74.7777 109.913L84.9891 106.9C85.0108 106.889 85.0433 106.878 85.065 106.867C85.1734 106.835 85.2818 106.781 85.3902 106.726C85.4336 106.705 85.4769 106.683 85.5203 106.661C85.6612 106.575 85.7913 106.477 85.9105 106.358L124.36 67.91C124.772 67.4981 125 66.9561 125 66.3816C124.989 65.7963 124.762 65.2435 124.36 64.8316ZM84.3712 101.751L80.2412 97.6212L108.425 69.4384L112.556 73.5683L84.3712 101.751ZM78.2249 101.729L80.2628 103.767L77.3685 104.624L78.2249 101.729ZM115.623 70.5007L111.493 66.3708L115.623 62.2409L119.753 66.3708L115.623 70.5007Z" fill="#605DD3"/>
<path d="M116.39 74.6196L102.62 88.3778C101.793 89.2039 101.793 90.549 102.62 91.3751C103.034 91.7882 103.574 92 104.115 92C104.656 92 105.196 91.7882 105.61 91.3751L119.38 77.6169C120.207 76.7908 120.207 75.4457 119.38 74.6196C118.564 73.7935 117.217 73.7935 116.39 74.6196Z" fill="#605DD3"/>
<path d="M66.8444 107H39.1556C37.9701 107 37 107.9 37 109C37 110.1 37.9701 111 39.1556 111H66.8444C68.03 111 69 110.1 69 109C69 107.9 68.03 107 66.8444 107Z" fill="#9191FC"/>
<path d="M66.8444 88H39.1556C37.9701 88 37 88.9 37 90C37 91.1 37.9701 92 39.1556 92H66.8444C68.03 92 69 91.1 69 90C69 88.9 68.03 88 66.8444 88Z" fill="#9191FC"/>
<path d="M89 71C89 69.9 88.0148 69 86.8106 69H39.1895C37.9853 69 37 69.9 37 71C37 72.1 37.9853 73 39.1895 73H86.8106C88.0148 73 89 72.1 89 71Z" fill="#9191FC"/>
</svg>
