<svg width="743" height="733" viewBox="0 0 743 733" fill="none" xmlns="http://www.w3.org/2000/svg">
<path d="M644.961 306.874L644.959 306.868C639.433 280.372 638.805 251.3 638.196 223.084C638.048 216.217 637.901 209.4 637.684 202.683C636.575 168.265 633.648 136.527 619.712 113.531L619.709 113.527C606.051 90.7503 581.299 76.4187 551.813 69.0446C522.336 61.6726 488.242 61.287 456.105 66.3073C394.354 75.9408 340.015 105.773 286.663 135.062C284.844 136.061 283.025 137.059 281.208 138.056C279.468 139.01 277.73 139.962 275.993 140.914C222.698 170.118 171.182 198.346 138.605 241.459C104.992 285.941 91.9014 346.305 95.3886 405.73L95.389 405.737C98.462 465.257 118.368 522.681 158.559 556.497C198.705 589.932 259.18 599.085 312.087 605.115L312.094 605.116C325.991 606.804 339.319 608.282 352.528 609.747C389.601 613.858 425.738 617.865 470.866 626.126L470.872 626.127C477.404 627.365 484.118 628.69 490.962 630.041C516.249 635.032 543.301 640.372 569.434 642.924C602.652 646.168 634.184 644.883 658.553 632.776C682.889 620.686 700.113 597.637 709.756 570.172C719.398 542.709 721.429 510.908 715.438 481.46C709.535 452.444 695.845 425.691 681.71 398.067L681.061 396.8C666.718 368.766 652.049 339.815 644.961 306.874Z" stroke="#E6E6FC" stroke-width="2"/>
<path opacity="0.5" d="M616.998 601.672C666.256 577.2 686.47 508.498 674.418 449.261C662.367 390.024 618.051 340.252 603.938 274.664C590.241 208.997 606.747 127.513 578.567 81.0128C550.88 34.8411 478.429 23.2467 413.951 33.3193C349.889 43.3133 293.799 74.9742 238.727 105.179C183.655 135.384 129.601 164.132 95.807 208.856C62.0124 253.58 48.8935 314.2 52.3903 373.789C55.471 433.456 75.4299 491.2 115.917 525.263C156.326 558.92 217.11 568.083 269.974 574.108C322.914 580.54 367.517 583.912 428.686 595.11C489.931 606.714 567.74 626.144 616.998 601.672Z" fill="#E6E6FC"/>
</svg>
