<svg width="300" height="400" viewBox="0 0 300 400" fill="none" xmlns="http://www.w3.org/2000/svg">
<path d="M255.736 107.207L255.736 107.209C270.565 132.038 283.195 156.488 290.915 179.54C298.637 202.598 301.418 224.171 296.655 243.29L296.654 243.294C292.013 262.269 279.798 278.878 262.819 294.851C245.836 310.827 224.177 326.086 200.754 342.397C177.332 358.573 152.238 375.628 128.613 386.745C104.936 397.885 83.0303 402.917 65.8378 395.484C48.6267 388.044 35.7751 367.894 26.1648 341.473C16.5769 315.114 10.3132 282.792 6.09308 251.416L6.093 251.415C-2.34883 188.919 -2.54879 130.659 23.1215 82.3098C35.9612 58.1266 55.1633 36.4683 76.7191 21.5958C98.2835 6.71732 122.111 -1.31018 144.231 1.58589C166.231 4.61565 186.732 18.5953 205.46 38.102C224.178 57.5977 241.028 82.5109 255.736 107.207Z" stroke="#E6E6FC" stroke-width="2"/>
</svg>
