<svg width="227" height="639" viewBox="0 0 227 639" fill="none" xmlns="http://www.w3.org/2000/svg">
<g clip-path="url(#clip0_237_477)">
<path d="M94.591 390.321C94.3941 390.507 94.1758 390.663 93.9422 390.787C93.5529 390.995 94.4445 392.667 94.6217 394.961C94.7358 396.445 94.321 397.811 93.3344 398.744C92.3638 399.662 91.0098 400.008 89.5567 399.836C87.3108 399.57 85.6843 398.558 85.4898 398.843C85.3724 399.013 85.2373 399.171 85.0845 399.316C83.4951 400.819 80.5481 400.293 78.505 398.145C76.4581 395.992 76.089 393.032 77.6784 391.528C78.217 391.019 79.6895 390.304 80.3871 390.01C82.3385 389.193 84.9001 386.661 85.5032 385.288C85.8273 384.55 86.6122 383.079 87.1828 382.54C88.7702 381.038 91.7153 381.563 93.7623 383.715C95.8074 385.857 96.1804 388.818 94.591 390.321Z" fill="#D5D5FB"/>
<path d="M89.8585 404.833C91.1075 407.327 90.5218 410.084 88.5502 410.99C86.5805 411.898 83.9699 410.61 82.719 408.114C81.4659 405.619 82.0537 402.86 84.0232 401.956C85.9969 401.048 88.6075 402.336 89.8585 404.833Z" fill="#D5D5FB"/>
<path d="M93.2327 404.176C95.2892 402.812 98.3305 403.757 100.028 406.294C101.727 408.829 101.436 411.992 99.3791 413.356C97.3244 414.723 94.2834 413.773 92.5842 411.239C90.889 408.704 91.1781 405.543 93.2327 404.176Z" fill="#D5D5FB"/>
<path d="M106.691 393.966C105.679 395.881 102.886 396.319 100.457 394.941C98.0208 393.562 96.8734 390.894 97.8835 388.98C98.8955 387.064 101.688 386.626 104.122 388.004C106.552 389.382 107.703 392.05 106.691 393.966Z" fill="#D5D5FB"/>
<path d="M98.8741 398.462C100.351 396.487 103.53 396.366 105.979 398.191C108.429 400.016 109.214 403.095 107.739 405.071C106.261 407.045 103.083 407.166 100.634 405.341C98.184 403.517 97.3967 400.436 98.8741 398.462Z" fill="#D5D5FB"/>
<path d="M47.2047 476.015C46.9674 476.146 46.7171 476.242 46.4599 476.303C46.0307 476.408 46.4743 478.25 46.0705 480.514C45.8086 481.98 45.0644 483.198 43.8752 483.854C42.7055 484.499 41.308 484.494 39.9444 483.964C37.8373 483.142 36.5167 481.755 36.2569 481.982C36.1007 482.117 35.9301 482.237 35.746 482.338C33.8304 483.394 31.1097 482.146 29.671 479.554C28.2295 476.957 28.615 473.998 30.5307 472.941C31.1798 472.584 32.7845 472.261 33.5336 472.151C35.6276 471.849 38.7424 470.041 39.6705 468.864C40.1696 468.23 41.2981 467.003 41.9859 466.624C43.8992 465.569 46.6185 466.815 48.0599 469.412C49.5021 471.999 49.1204 474.959 47.2047 476.015Z" fill="#D5D5FB"/>
<path d="M37.7713 488.849C38.3545 491.577 37.0959 494.099 34.9601 494.481C32.8257 494.867 30.6217 492.965 30.0371 490.234C29.45 487.505 30.7111 484.982 32.8445 484.6C34.9827 484.217 37.1867 486.118 37.7713 488.849Z" fill="#D5D5FB"/>
<path d="M41.2749 488.647C43.6078 487.842 46.3146 489.521 47.321 492.402C48.3298 495.282 47.2544 498.271 44.9214 499.076C42.5898 499.883 39.8842 498.201 38.8754 495.321C37.8703 492.442 38.9433 489.455 41.2749 488.647Z" fill="#D5D5FB"/>
<path d="M56.5401 482.059C55.0798 483.659 52.2671 483.383 50.2606 481.439C48.249 479.493 47.8077 476.622 49.2655 475.023C50.7258 473.422 53.5385 473.699 55.5488 475.643C57.5553 477.586 58.0004 480.458 56.5401 482.059Z" fill="#D5D5FB"/>
<path d="M48.6373 484.551C50.5626 483.01 53.6693 483.69 55.5828 486.071C57.4962 488.452 57.4841 491.63 55.5601 493.173C53.6347 494.713 50.528 494.033 48.6146 491.652C46.7012 489.271 46.7119 486.091 48.6373 484.551Z" fill="#D5D5FB"/>
<path d="M143.441 503.291C143.271 503.501 143.076 503.685 142.861 503.839C142.503 504.097 143.609 505.635 144.091 507.884C144.402 509.34 144.173 510.749 143.32 511.806C142.48 512.845 141.185 513.369 139.722 513.393C137.46 513.428 135.713 512.642 135.559 512.951C135.465 513.134 135.352 513.31 135.22 513.473C133.846 515.175 130.855 515.047 128.543 513.19C126.227 511.33 125.467 508.445 126.841 506.744C127.307 506.167 128.671 505.262 129.323 504.878C131.148 503.807 133.349 500.956 133.763 499.515C133.986 498.74 134.568 497.178 135.061 496.567C136.434 494.867 139.423 494.994 141.739 496.854C144.051 498.704 144.816 501.589 143.441 503.291Z" fill="#D5D5FB"/>
<path d="M139.762 518.5C141.333 520.805 141.12 523.616 139.287 524.777C137.457 525.94 134.697 525.012 133.125 522.704C131.55 520.399 131.764 517.586 133.596 516.428C135.43 515.264 138.19 516.192 139.762 518.5Z" fill="#D5D5FB"/>
<path d="M143.708 516.76C145.564 515.134 148.704 515.665 150.725 517.952C152.747 520.238 152.88 523.411 151.024 525.038C149.17 526.666 146.03 526.131 144.008 523.846C141.989 521.56 141.854 518.389 143.708 516.76Z" fill="#D5D5FB"/>
<path d="M155.139 505.485C154.391 507.518 151.682 508.325 149.09 507.284C146.492 506.241 144.999 503.75 145.745 501.719C146.492 499.685 149.201 498.879 151.797 499.919C154.389 500.961 155.886 503.451 155.139 505.485Z" fill="#D5D5FB"/>
<path d="M148.533 510.215C149.734 508.062 152.867 507.518 155.539 508.999C158.21 510.481 159.399 513.427 158.2 515.583C157 517.736 153.866 518.28 151.195 516.799C148.524 515.317 147.332 512.369 148.533 510.215Z" fill="#D5D5FB"/>
<path d="M108.143 583.077C107.952 583.269 107.738 583.43 107.508 583.561C107.125 583.78 108.064 585.426 108.307 587.713C108.463 589.194 108.088 590.571 107.128 591.532C106.184 592.477 104.841 592.862 103.383 592.732C101.131 592.53 99.4759 591.565 99.2896 591.855C99.1771 592.028 99.0466 592.191 98.8981 592.34C97.3523 593.888 94.3914 593.446 92.2877 591.357C90.18 589.264 89.7264 586.315 91.2722 584.767C91.7959 584.243 93.2474 583.486 93.9363 583.172C95.8635 582.299 98.3516 579.695 98.9152 578.306C99.2181 577.558 99.9605 576.066 100.516 575.51C102.059 573.964 105.018 574.404 107.126 576.497C109.231 578.58 109.689 581.529 108.143 583.077Z" fill="#D5D5FB"/>
<path d="M102.628 597.749C103.948 600.207 103.441 602.979 101.496 603.942C99.5536 604.906 96.9072 603.693 95.5853 601.233C94.2614 598.776 94.77 596.001 96.7129 595.041C98.6597 594.077 101.306 595.289 102.628 597.749Z" fill="#D5D5FB"/>
<path d="M105.9 596.284C107.917 594.861 110.984 595.719 112.753 598.206C114.524 600.691 114.323 603.861 112.307 605.284C110.292 606.709 107.225 605.847 105.454 603.362C103.687 600.877 103.886 597.709 105.9 596.284Z" fill="#D5D5FB"/>
<path d="M119.578 585.857C118.621 587.801 115.843 588.318 113.375 587.01C110.9 585.701 109.677 583.067 110.632 581.125C111.589 579.181 114.367 578.664 116.84 579.971C119.308 581.279 120.535 583.913 119.578 585.857Z" fill="#D5D5FB"/>
<path d="M111.579 590.607C112.999 588.592 116.173 588.38 118.673 590.134C121.174 591.888 122.048 594.943 120.629 596.961C119.209 598.976 116.036 599.188 113.535 597.434C111.034 595.68 110.159 592.623 111.579 590.607Z" fill="#D5D5FB"/>
<path d="M205.203 610.34C205.076 610.579 204.918 610.796 204.736 610.988C204.433 611.309 205.81 612.611 206.707 614.73C207.287 616.101 207.327 617.528 206.688 618.726C206.06 619.905 204.886 620.663 203.454 620.962C201.24 621.423 199.376 620.981 199.282 621.313C199.225 621.511 199.147 621.705 199.048 621.89C198.019 623.82 195.058 624.258 192.438 622.87C189.813 621.48 188.522 618.79 189.552 616.86C189.9 616.205 191.069 615.059 191.637 614.559C193.228 613.164 194.852 609.949 194.987 608.456C195.06 607.653 195.337 606.009 195.706 605.316C196.734 603.388 199.693 602.949 202.318 604.339C204.938 605.721 206.232 608.41 205.203 610.34Z" fill="#D5D5FB"/>
<path d="M205.155 626.284C207.132 628.252 207.453 631.053 205.872 632.539C204.293 634.026 201.408 633.634 199.429 631.664C197.448 629.697 197.128 626.894 198.708 625.411C200.291 623.923 203.176 624.315 205.155 626.284Z" fill="#D5D5FB"/>
<path d="M207.711 623.923C209.227 621.976 212.411 621.906 214.827 623.772C217.243 625.635 217.972 628.727 216.456 630.674C214.942 632.623 211.757 632.689 209.341 630.826C206.928 628.961 206.197 625.872 207.711 623.923Z" fill="#D5D5FB"/>
<path d="M217.258 609.939C216.907 612.077 214.399 613.379 211.657 612.845C208.909 612.311 206.973 610.146 207.323 608.01C207.674 605.872 210.182 604.57 212.927 605.102C215.669 605.637 217.609 607.801 217.258 609.939Z" fill="#D5D5FB"/>
<path d="M211.831 616.573C212.605 614.232 215.58 613.107 218.482 614.059C221.384 615.011 223.108 617.681 222.337 620.023C221.564 622.365 218.589 623.489 215.686 622.538C212.784 621.586 211.058 618.915 211.831 616.573Z" fill="#D5D5FB"/>
<path d="M11.9848 345.318C12.246 345.246 12.4921 345.14 12.7184 345.004C13.0978 344.779 14.0759 346.405 15.955 347.741C17.1718 348.605 18.5585 348.956 19.8675 348.594C21.1551 348.239 22.1487 347.26 22.7485 345.929C23.6742 343.872 23.641 341.959 23.986 341.94C24.192 341.927 24.398 341.893 24.6006 341.837C26.7093 341.255 27.7724 338.464 26.9772 335.608C26.1804 332.746 23.8266 330.902 21.7178 331.484C21.0034 331.682 19.6318 332.571 19.0207 333.016C17.3149 334.262 13.8226 335.144 12.3334 334.951C11.532 334.846 9.8652 334.758 9.10808 334.967C7.00201 335.548 5.93816 338.337 6.73493 341.198C7.52408 344.053 9.87602 345.901 11.9848 345.318Z" fill="#D5D5FB"/>
<path d="M27.3857 347.297C28.8867 349.653 31.5566 350.577 33.3488 349.359C35.1418 348.144 35.3775 345.248 33.8758 342.889C32.3768 340.529 29.7042 339.607 27.9147 340.824C26.1198 342.042 25.884 344.939 27.3857 347.297Z" fill="#D5D5FB"/>
<path d="M23.6513 349.745C21.4216 350.799 20.6701 353.887 21.977 356.647C23.2811 359.409 26.1484 360.794 28.378 359.74C30.6084 358.69 31.3565 355.6 30.0523 352.838C28.7462 350.08 25.8816 348.695 23.6513 349.745Z" fill="#D5D5FB"/>
<path d="M8.50882 356.144C10.6751 356.268 12.4868 354.107 12.5525 351.318C12.6195 348.523 10.9172 346.165 8.75355 346.04C6.58726 345.915 4.77555 348.076 4.70789 350.868C4.64217 353.657 6.34252 356.019 8.50882 356.144Z" fill="#D5D5FB"/>
<path d="M16.454 352.247C13.9982 352.491 12.2602 355.145 12.5685 358.182C12.8768 361.218 15.1182 363.48 17.5747 363.239C20.0305 362.996 21.7684 360.341 21.4602 357.305C21.1519 354.268 18.9097 352.004 16.454 352.247Z" fill="#D5D5FB"/>
<path d="M80.0007 273.935C80.2635 273.868 80.5118 273.767 80.7409 273.636C81.1251 273.419 82.0678 275.066 83.9176 276.442C85.1154 277.332 86.4942 277.713 87.8106 277.379C89.1056 277.052 90.12 276.094 90.7485 274.777C91.7184 272.74 91.7266 270.826 92.0719 270.815C92.2781 270.806 92.4848 270.777 92.6885 270.726C94.8093 270.189 95.9325 267.421 95.1992 264.549C94.4645 261.671 92.1511 259.776 90.0303 260.313C89.3118 260.495 87.9214 261.354 87.3008 261.786C85.5685 262.995 82.0581 263.802 80.5733 263.576C79.7745 263.455 78.11 263.33 77.3486 263.523C75.2305 264.059 74.1066 266.824 74.8413 269.702C75.5686 272.573 77.8799 274.471 80.0007 273.935Z" fill="#D5D5FB"/>
<path d="M95.4213 277.116C96.871 279.504 99.5203 280.484 101.338 279.306C103.157 278.13 103.455 275.239 102.005 272.848C100.557 270.457 97.9054 269.477 96.0901 270.655C94.2693 271.834 93.971 274.725 95.4213 277.116Z" fill="#D5D5FB"/>
<path d="M92.8501 279.571C90.5982 280.576 89.7802 283.647 91.027 286.436C92.2711 289.225 95.1077 290.671 97.3596 289.666C99.612 288.663 100.427 285.59 99.1826 282.801C97.9364 280.015 95.1025 278.569 92.8501 279.571Z" fill="#D5D5FB"/>
<path d="M77.4821 286.029C79.6452 286.2 81.5031 284.078 81.6291 281.291C81.7564 278.499 80.1055 276.104 77.9452 275.932C75.7821 275.761 73.9242 277.883 73.7962 280.673C73.6702 283.46 75.3191 285.858 77.4821 286.029Z" fill="#D5D5FB"/>
<path d="M84.663 282.112C82.2027 282.303 80.4078 284.919 80.6503 287.961C80.8929 291.004 83.0849 293.313 85.5459 293.126C88.0063 292.935 89.8012 290.319 89.5586 287.276C89.3161 284.234 87.1234 281.922 84.663 282.112Z" fill="#D5D5FB"/>
<path d="M22.6375 216.366C22.9061 216.402 23.1742 216.401 23.4359 216.365C23.8736 216.307 24.1297 218.185 25.3285 220.15C26.105 221.421 27.2407 222.288 28.5866 222.468C29.9105 222.646 31.2106 222.136 32.288 221.147C33.9522 219.618 34.6782 217.846 35.0027 217.964C35.1971 218.033 35.3996 218.083 35.608 218.111C37.7762 218.402 39.8567 216.253 40.2551 213.315C40.6542 210.372 39.2203 207.753 37.0521 207.462C36.3175 207.363 34.7054 207.643 33.9679 207.812C31.9077 208.289 28.3494 207.731 27.0572 206.97C26.362 206.56 24.8652 205.825 24.0867 205.72C21.9213 205.429 19.8411 207.576 19.442 210.52C19.0385 213.454 20.4693 216.075 22.6375 216.366Z" fill="#D5D5FB"/>
<path d="M35.6808 225.113C36.1287 227.867 38.2173 229.763 40.3457 229.346C42.4738 228.932 43.8358 226.361 43.3883 223.603C42.9436 220.846 40.8522 218.95 38.7266 219.368C36.5954 219.784 35.2333 222.355 35.6808 225.113Z" fill="#D5D5FB"/>
<path d="M31.9109 226.273C29.4454 226.367 27.5337 228.912 27.6432 231.963C27.7498 235.013 29.8374 237.41 32.3029 237.316C34.768 237.224 36.6772 234.676 36.5706 231.626C36.4608 228.578 34.376 226.181 31.9109 226.273Z" fill="#D5D5FB"/>
<path d="M15.4257 225.954C17.3674 226.917 19.8868 225.641 21.0498 223.102C22.2163 220.559 21.5845 217.723 19.6455 216.76C17.7038 215.796 15.1844 217.073 14.0183 219.614C12.8552 222.152 13.4839 224.99 15.4257 225.954Z" fill="#D5D5FB"/>
<path d="M23.7644 225.522C21.4113 224.783 18.7646 226.542 17.8473 229.455C16.9301 232.368 18.0957 235.326 20.4485 236.067C22.8015 236.806 25.4482 235.047 26.3655 232.134C27.2828 229.222 26.1175 226.261 23.7644 225.522Z" fill="#D5D5FB"/>
<path d="M111.399 149.906C111.663 149.967 111.93 149.99 112.194 149.979C112.635 149.961 112.716 151.855 113.728 153.921C114.383 155.259 115.434 156.226 116.757 156.53C118.059 156.829 119.401 156.441 120.566 155.556C122.365 154.187 123.252 152.49 123.564 152.637C123.751 152.724 123.949 152.792 124.153 152.839C126.285 153.329 128.557 151.381 129.226 148.493C129.897 145.599 128.712 142.86 126.58 142.37C125.857 142.204 124.226 142.334 123.476 142.435C121.38 142.72 117.888 141.836 116.672 140.959C116.018 140.486 114.595 139.617 113.83 139.441C111.701 138.952 109.43 140.897 108.759 143.791C108.085 146.675 109.267 149.416 111.399 149.906Z" fill="#D5D5FB"/>
<path d="M124.15 159.474C124.34 162.258 126.244 164.338 128.402 164.119C130.56 163.903 132.155 161.469 131.965 158.683C131.778 155.897 129.871 153.816 127.716 154.035C125.555 154.254 123.96 156.688 124.15 159.474Z" fill="#D5D5FB"/>
<path d="M120.001 160.962C117.537 160.829 115.397 163.186 115.223 166.234C115.046 169.281 116.903 171.86 119.367 171.993C121.83 172.129 123.968 169.769 124.144 166.722C124.318 163.677 122.464 161.098 120.001 160.962Z" fill="#D5D5FB"/>
<path d="M103.531 158.46C105.375 159.598 108.002 158.559 109.396 156.139C110.794 153.714 110.428 150.833 108.586 149.695C106.742 148.557 104.115 149.595 102.718 152.018C101.324 154.437 101.687 157.321 103.531 158.46Z" fill="#D5D5FB"/>
<path d="M111.824 158.381C109.549 157.429 106.75 158.936 105.566 161.752C104.383 164.567 105.269 167.62 107.543 168.575C109.818 169.528 112.617 168.02 113.8 165.205C114.984 162.389 114.098 159.334 111.824 158.381Z" fill="#D5D5FB"/>
<path d="M56.8733 89.5975C57.1164 89.7173 57.3709 89.8018 57.6306 89.8509C58.0642 89.9354 57.7057 91.7961 58.2132 94.0396C58.5423 95.4918 59.3417 96.6744 60.5597 97.2748C61.7578 97.8655 63.1536 97.7967 64.4913 97.2041C66.5584 96.2866 67.8137 94.8397 68.0837 95.0547C68.2459 95.182 68.4219 95.294 68.6104 95.387C70.5726 96.3543 73.2329 94.9818 74.5509 92.3263C75.8713 89.6656 75.3502 86.7279 73.388 85.7605C72.7232 85.4328 71.1053 85.1839 70.3521 85.1091C68.2464 84.9036 65.0518 83.2404 64.0706 82.1069C63.5429 81.4967 62.3592 80.3233 61.6547 79.976C59.695 79.0099 57.0359 80.3798 55.7154 83.0404C54.3938 85.691 54.9111 88.6301 56.8733 89.5975Z" fill="#D5D5FB"/>
<path d="M66.567 101.083C66.1098 103.835 67.4831 106.297 69.6342 106.581C71.784 106.867 73.8981 104.866 74.3565 102.112C74.8175 99.3585 73.4417 96.8957 71.2931 96.6129C69.1395 96.3276 67.0254 98.3286 66.567 101.083Z" fill="#D5D5FB"/>
<path d="M62.8183 101.635C60.4508 100.938 57.8242 102.738 56.9514 105.663C56.0761 108.586 57.2878 111.523 59.6552 112.22C62.0214 112.919 64.6468 111.115 65.5221 108.191C66.3937 105.269 65.1845 102.334 62.8183 101.635Z" fill="#D5D5FB"/>
<path d="M46.9915 95.2781C48.5238 96.81 51.3208 96.4042 53.2357 94.3708C55.1557 92.3337 55.4645 89.4458 53.9347 87.9152C52.4024 86.3833 49.6055 86.789 47.6868 88.8237C45.7718 90.8571 45.4592 93.7462 46.9915 95.2781Z" fill="#D5D5FB"/>
<path d="M55.4957 98.4617C53.5015 97.0112 50.4295 97.8334 48.6276 100.3C46.8257 102.766 46.9839 105.94 48.9768 107.393C50.9709 108.843 54.043 108.021 55.8449 105.555C57.6467 103.088 57.4898 99.9121 55.4957 98.4617Z" fill="#D5D5FB"/>
<path d="M127.682 14.1867C127.895 14.3542 128.127 14.4894 128.371 14.5911C128.777 14.7633 128.042 16.5097 128.075 18.8095C128.097 20.2983 128.635 21.6204 129.703 22.4595C130.753 23.2848 132.133 23.5058 133.565 23.2023C135.777 22.7316 137.304 21.5752 137.524 21.8414C137.656 21.9994 137.805 22.1454 137.971 22.2752C139.691 23.6269 142.577 22.8336 144.415 20.5077C146.257 18.1773 146.354 15.1954 144.634 13.8437C144.051 13.3857 142.52 12.8081 141.798 12.5793C139.78 11.9434 136.998 9.65628 136.272 8.34466C135.882 7.63862 134.966 6.24612 134.348 5.76081C132.63 4.41081 129.745 5.20192 127.904 7.5323C126.063 9.8526 125.962 12.835 127.682 14.1867Z" fill="#D5D5FB"/>
<path d="M135.077 28.1429C134.061 30.741 134.896 33.4331 136.942 34.1552C138.987 34.8796 141.469 33.3586 142.486 30.7582C143.506 28.1596 142.669 25.4658 140.625 24.7454C138.577 24.0215 136.095 25.5425 135.077 28.1429Z" fill="#D5D5FB"/>
<path d="M131.341 27.8968C129.168 26.726 126.226 27.9452 124.768 30.6263C123.307 33.3057 123.886 36.4289 126.059 37.5997C128.23 38.7727 131.171 37.5495 132.632 34.8702C134.088 32.1912 133.512 29.0697 131.341 27.8968Z" fill="#D5D5FB"/>
<path d="M116.626 18.3348C117.808 20.15 120.629 20.3307 122.923 18.7368C125.222 17.1402 126.121 14.3786 124.941 12.5651C123.758 10.7499 120.937 10.5691 118.639 12.1635C116.345 13.7574 115.443 16.5195 116.626 18.3348Z" fill="#D5D5FB"/>
<path d="M124.811 22.0524C123.16 20.2214 119.984 20.3913 117.711 22.4323C115.438 24.4733 114.938 27.6111 116.587 29.4441C118.239 31.2751 121.415 31.1052 123.688 29.0642C125.96 27.0232 126.463 23.8833 124.811 22.0524Z" fill="#D5D5FB"/>
</g>
<defs>
<clipPath id="clip0_237_477">
<rect width="226" height="638" fill="white" transform="matrix(1 0 0 -1 0.827301 638.844)"/>
</clipPath>
</defs>
</svg>
