<svg width="87" height="511" viewBox="0 0 87 511" fill="none" xmlns="http://www.w3.org/2000/svg">
<g clip-path="url(#clip0_67_616)">
<path d="M22.0478 499.399C21.7768 499.399 21.5112 499.436 21.2568 499.506C20.8309 499.622 20.3248 497.795 18.8728 496.007C17.9324 494.85 16.6906 494.143 15.3327 494.143C13.9968 494.143 12.7772 494.822 11.8424 495.945C10.3987 497.682 9.91742 499.535 9.58 499.461C9.37811 499.419 9.17068 499.396 8.96049 499.396C6.77282 499.396 5 501.803 5 504.768C5 507.738 6.77282 510.143 8.96049 510.143C9.7017 510.143 11.2616 509.651 11.9696 509.385C13.947 508.638 17.548 508.717 18.9308 509.3C19.6748 509.614 21.2568 510.143 22.0423 510.143C24.2272 510.143 26 507.738 26 504.768C26.0055 501.806 24.2355 499.399 22.0478 499.399Z" fill="#D5D5FB"/>
<path d="M7.71742 492.881C6.90346 490.21 4.57903 488.609 2.52592 489.306C0.472819 489.999 -0.531358 492.729 0.282612 495.402C1.09378 498.076 3.42101 499.676 5.47132 498.98C7.52722 498.284 8.53139 495.554 7.71742 492.881Z" fill="#D5D5FB"/>
<path d="M11.4358 491.09C13.8663 490.668 15.4186 487.891 14.9002 484.882C14.3846 481.873 11.9938 479.775 9.56337 480.197C7.13291 480.616 5.58342 483.395 6.09897 486.404C6.61736 489.411 9.00533 491.509 11.4358 491.09Z" fill="#D5D5FB"/>
<path d="M27.4722 489.306C25.4187 488.609 23.0937 490.21 22.2823 492.881C21.4682 495.557 22.4754 498.284 24.5262 498.98C26.5797 499.676 28.9047 498.076 29.7189 495.402C30.5302 492.732 29.5258 490.002 27.4722 489.306Z" fill="#D5D5FB"/>
<path d="M19.5656 491.089C21.9967 491.509 24.383 489.413 24.9005 486.404C25.418 483.395 23.8654 480.618 21.4344 480.196C19.0033 479.777 16.617 481.873 16.0995 484.882C15.582 487.891 17.1346 490.67 19.5656 491.089Z" fill="#D5D5FB"/>
<path d="M79.0478 431.399C78.7768 431.399 78.5112 431.436 78.2568 431.506C77.8309 431.622 77.3248 429.795 75.8728 428.007C74.9324 426.85 73.6906 426.143 72.3327 426.143C70.9968 426.143 69.7772 426.822 68.8424 427.945C67.3987 429.682 66.9174 431.535 66.58 431.461C66.3781 431.419 66.1707 431.396 65.9605 431.396C63.7728 431.396 62 433.803 62 436.768C62 439.738 63.7728 442.143 65.9605 442.143C66.7017 442.143 68.2616 441.651 68.9696 441.385C70.947 440.638 74.548 440.717 75.9308 441.3C76.6748 441.614 78.2568 442.143 79.0423 442.143C81.2272 442.143 83 439.738 83 436.768C83.0055 433.806 81.2355 431.399 79.0478 431.399Z" fill="#D5D5FB"/>
<path d="M64.7174 424.881C63.9035 422.21 61.579 420.609 59.5259 421.306C57.4728 421.999 56.4686 424.729 57.2826 427.402C58.0938 430.076 60.421 431.676 62.4713 430.98C64.5272 430.284 65.5314 427.554 64.7174 424.881Z" fill="#D5D5FB"/>
<path d="M68.4358 423.09C70.8663 422.668 72.4186 419.891 71.9002 416.882C71.3846 413.873 68.9938 411.775 66.5634 412.197C64.1329 412.616 62.5834 415.395 63.099 418.404C63.6174 421.411 66.0053 423.509 68.4358 423.09Z" fill="#D5D5FB"/>
<path d="M84.4722 421.306C82.4187 420.609 80.0937 422.21 79.2823 424.881C78.4682 427.557 79.4754 430.284 81.5262 430.98C83.5797 431.676 85.9047 430.076 86.7189 427.402C87.5302 424.732 86.5258 422.002 84.4722 421.306Z" fill="#D5D5FB"/>
<path d="M76.5656 423.089C78.9967 423.509 81.383 421.413 81.9005 418.404C82.418 415.395 80.8654 412.618 78.4344 412.196C76.0033 411.777 73.617 413.873 73.0995 416.882C72.582 419.891 74.1346 422.67 76.5656 423.089Z" fill="#D5D5FB"/>
<path d="M22.0478 379.399C21.7768 379.399 21.5112 379.436 21.2568 379.506C20.8309 379.622 20.3248 377.795 18.8728 376.007C17.9324 374.85 16.6906 374.143 15.3327 374.143C13.9968 374.143 12.7772 374.822 11.8424 375.945C10.3987 377.682 9.91742 379.535 9.58 379.461C9.37811 379.419 9.17068 379.396 8.96049 379.396C6.77282 379.396 5 381.803 5 384.768C5 387.738 6.77282 390.143 8.96049 390.143C9.7017 390.143 11.2616 389.651 11.9696 389.385C13.947 388.638 17.548 388.717 18.9308 389.3C19.6748 389.614 21.2568 390.143 22.0423 390.143C24.2272 390.143 26 387.738 26 384.768C26.0055 381.806 24.2355 379.399 22.0478 379.399Z" fill="#D5D5FB"/>
<path d="M7.71742 372.881C6.90346 370.21 4.57903 368.609 2.52592 369.306C0.472819 369.999 -0.531358 372.729 0.282612 375.402C1.09378 378.076 3.42101 379.676 5.47132 378.98C7.52722 378.284 8.53139 375.554 7.71742 372.881Z" fill="#D5D5FB"/>
<path d="M11.4358 371.09C13.8663 370.668 15.4186 367.891 14.9002 364.882C14.3846 361.873 11.9938 359.775 9.56337 360.197C7.13291 360.616 5.58342 363.395 6.09897 366.404C6.61736 369.411 9.00533 371.509 11.4358 371.09Z" fill="#D5D5FB"/>
<path d="M27.4722 369.306C25.4187 368.609 23.0937 370.21 22.2823 372.881C21.4682 375.557 22.4754 378.284 24.5262 378.98C26.5797 379.676 28.9047 378.076 29.7189 375.402C30.5302 372.732 29.5258 370.002 27.4722 369.306Z" fill="#D5D5FB"/>
<path d="M19.5656 371.089C21.9967 371.509 24.383 369.413 24.9005 366.404C25.418 363.395 23.8654 360.618 21.4344 360.196C19.0033 359.777 16.617 361.873 16.0995 364.882C15.582 367.891 17.1346 370.67 19.5656 371.089Z" fill="#D5D5FB"/>
<path d="M79.0478 311.399C78.7768 311.399 78.5112 311.436 78.2568 311.506C77.8309 311.622 77.3248 309.795 75.8728 308.007C74.9324 306.85 73.6906 306.143 72.3327 306.143C70.9968 306.143 69.7772 306.822 68.8424 307.945C67.3987 309.682 66.9174 311.535 66.58 311.461C66.3781 311.419 66.1707 311.396 65.9605 311.396C63.7728 311.396 62 313.803 62 316.768C62 319.738 63.7728 322.143 65.9605 322.143C66.7017 322.143 68.2616 321.651 68.9696 321.385C70.947 320.638 74.548 320.717 75.9308 321.3C76.6748 321.614 78.2568 322.143 79.0423 322.143C81.2272 322.143 83 319.738 83 316.768C83.0055 313.806 81.2355 311.399 79.0478 311.399Z" fill="#D5D5FB"/>
<path d="M64.7174 304.881C63.9035 302.21 61.579 300.609 59.5259 301.306C57.4728 301.999 56.4686 304.729 57.2826 307.402C58.0938 310.076 60.421 311.676 62.4713 310.98C64.5272 310.284 65.5314 307.554 64.7174 304.881Z" fill="#D5D5FB"/>
<path d="M68.4358 303.09C70.8663 302.668 72.4186 299.891 71.9002 296.882C71.3846 293.873 68.9938 291.775 66.5634 292.197C64.1329 292.616 62.5834 295.395 63.099 298.404C63.6174 301.411 66.0053 303.509 68.4358 303.09Z" fill="#D5D5FB"/>
<path d="M84.4722 301.306C82.4187 300.609 80.0937 302.21 79.2823 304.881C78.4682 307.557 79.4754 310.284 81.5262 310.98C83.5797 311.676 85.9047 310.076 86.7189 307.402C87.5302 304.732 86.5258 302.002 84.4722 301.306Z" fill="#D5D5FB"/>
<path d="M76.5656 303.089C78.9967 303.509 81.383 301.413 81.9005 298.404C82.418 295.395 80.8654 292.618 78.4344 292.196C76.0033 291.777 73.617 293.873 73.0995 296.882C72.582 299.891 74.1346 302.67 76.5656 303.089Z" fill="#D5D5FB"/>
<path d="M22.0478 259.399C21.7768 259.399 21.5112 259.436 21.2568 259.506C20.8309 259.622 20.3248 257.795 18.8728 256.007C17.9324 254.85 16.6906 254.143 15.3327 254.143C13.9968 254.143 12.7772 254.822 11.8424 255.945C10.3987 257.682 9.91742 259.535 9.58 259.461C9.37811 259.419 9.17068 259.396 8.96049 259.396C6.77282 259.396 5 261.803 5 264.768C5 267.738 6.77282 270.143 8.96049 270.143C9.7017 270.143 11.2616 269.651 11.9696 269.385C13.947 268.638 17.548 268.717 18.9308 269.3C19.6748 269.614 21.2568 270.143 22.0423 270.143C24.2272 270.143 26 267.738 26 264.768C26.0055 261.806 24.2355 259.399 22.0478 259.399Z" fill="#D5D5FB"/>
<path d="M7.71742 252.881C6.90346 250.21 4.57903 248.609 2.52592 249.306C0.472819 249.999 -0.531358 252.729 0.282612 255.402C1.09378 258.076 3.42101 259.676 5.47132 258.98C7.52722 258.284 8.53139 255.554 7.71742 252.881Z" fill="#D5D5FB"/>
<path d="M11.4358 251.09C13.8663 250.668 15.4186 247.891 14.9002 244.882C14.3846 241.873 11.9938 239.775 9.56337 240.197C7.13291 240.616 5.58342 243.395 6.09897 246.404C6.61736 249.411 9.00533 251.509 11.4358 251.09Z" fill="#D5D5FB"/>
<path d="M27.4722 249.306C25.4187 248.609 23.0937 250.21 22.2823 252.881C21.4682 255.557 22.4754 258.284 24.5262 258.98C26.5797 259.676 28.9047 258.076 29.7189 255.402C30.5302 252.732 29.5258 250.002 27.4722 249.306Z" fill="#D5D5FB"/>
<path d="M19.5656 251.089C21.9967 251.509 24.383 249.413 24.9005 246.404C25.418 243.395 23.8654 240.618 21.4344 240.196C19.0033 239.777 16.617 241.873 16.0995 244.882C15.582 247.891 17.1346 250.67 19.5656 251.089Z" fill="#D5D5FB"/>
<path d="M79.0478 191.399C78.7768 191.399 78.5112 191.436 78.2568 191.506C77.8309 191.622 77.3248 189.795 75.8728 188.007C74.9324 186.85 73.6906 186.143 72.3327 186.143C70.9968 186.143 69.7772 186.822 68.8424 187.945C67.3987 189.682 66.9174 191.535 66.58 191.461C66.3781 191.419 66.1707 191.396 65.9605 191.396C63.7728 191.396 62 193.803 62 196.768C62 199.738 63.7728 202.143 65.9605 202.143C66.7017 202.143 68.2616 201.651 68.9696 201.385C70.947 200.638 74.548 200.717 75.9308 201.3C76.6748 201.614 78.2568 202.143 79.0423 202.143C81.2272 202.143 83 199.738 83 196.768C83.0055 193.806 81.2355 191.399 79.0478 191.399Z" fill="#D5D5FB"/>
<path d="M64.7174 184.881C63.9035 182.21 61.579 180.609 59.5259 181.306C57.4728 181.999 56.4686 184.729 57.2826 187.402C58.0938 190.076 60.421 191.676 62.4713 190.98C64.5272 190.284 65.5314 187.554 64.7174 184.881Z" fill="#D5D5FB"/>
<path d="M68.4358 183.09C70.8663 182.668 72.4186 179.891 71.9002 176.882C71.3846 173.873 68.9938 171.775 66.5634 172.197C64.1329 172.616 62.5834 175.395 63.099 178.404C63.6174 181.411 66.0053 183.509 68.4358 183.09Z" fill="#D5D5FB"/>
<path d="M84.4722 181.306C82.4187 180.609 80.0937 182.21 79.2823 184.881C78.4682 187.557 79.4754 190.284 81.5262 190.98C83.5797 191.676 85.9047 190.076 86.7189 187.402C87.5302 184.732 86.5258 182.002 84.4722 181.306Z" fill="#D5D5FB"/>
<path d="M76.5656 183.089C78.9967 183.509 81.383 181.413 81.9005 178.404C82.418 175.395 80.8654 172.618 78.4344 172.196C76.0033 171.777 73.617 173.873 73.0995 176.882C72.582 179.891 74.1346 182.67 76.5656 183.089Z" fill="#D5D5FB"/>
<g clip-path="url(#clip1_67_616)">
<path d="M22.0478 139.399C21.7768 139.399 21.5112 139.436 21.2568 139.506C20.8309 139.622 20.3248 137.795 18.8728 136.007C17.9324 134.85 16.6906 134.143 15.3327 134.143C13.9968 134.143 12.7772 134.822 11.8424 135.945C10.3987 137.682 9.91742 139.535 9.58 139.461C9.37811 139.419 9.17068 139.396 8.96049 139.396C6.77282 139.396 5 141.803 5 144.768C5 147.738 6.77282 150.143 8.96049 150.143C9.7017 150.143 11.2616 149.651 11.9696 149.385C13.947 148.638 17.548 148.717 18.9308 149.3C19.6748 149.614 21.2568 150.143 22.0423 150.143C24.2272 150.143 26 147.738 26 144.768C26.0055 141.806 24.2355 139.399 22.0478 139.399Z" fill="#D5D5FB"/>
<path d="M7.71742 132.881C6.90346 130.21 4.57903 128.609 2.52592 129.306C0.472819 129.999 -0.531358 132.729 0.282612 135.402C1.09378 138.076 3.42101 139.676 5.47132 138.98C7.52722 138.284 8.53139 135.554 7.71742 132.881Z" fill="#D5D5FB"/>
<path d="M11.4358 131.09C13.8663 130.668 15.4186 127.891 14.9002 124.882C14.3846 121.873 11.9938 119.775 9.56337 120.197C7.13291 120.616 5.58342 123.395 6.09897 126.404C6.61736 129.411 9.00533 131.509 11.4358 131.09Z" fill="#D5D5FB"/>
<path d="M27.4722 129.306C25.4187 128.609 23.0937 130.21 22.2823 132.881C21.4682 135.557 22.4754 138.284 24.5262 138.98C26.5797 139.676 28.9047 138.076 29.7189 135.402C30.5302 132.732 29.5258 130.002 27.4722 129.306Z" fill="#D5D5FB"/>
<path d="M19.5656 131.089C21.9967 131.509 24.383 129.413 24.9005 126.404C25.418 123.395 23.8654 120.618 21.4344 120.196C19.0033 119.777 16.617 121.873 16.0995 124.882C15.582 127.891 17.1346 130.67 19.5656 131.089Z" fill="#D5D5FB"/>
</g>
<path d="M78.5522 73.3274C78.2812 73.3274 78.0156 73.3642 77.7612 73.4349C77.3353 73.5509 76.8292 71.7235 75.3772 69.9356C74.4368 68.7786 73.195 68.0714 71.8371 68.0714C70.5012 68.0714 69.2816 68.7503 68.3467 69.8734C66.903 71.6103 66.4218 73.4632 66.0844 73.3897C65.8825 73.3472 65.6751 73.3246 65.4649 73.3246C63.2772 73.3246 61.5044 75.7319 61.5044 78.6966C61.5044 81.6669 63.2772 84.0714 65.4649 84.0714C66.2061 84.0714 67.7659 83.5792 68.474 83.3133C70.4514 82.5665 74.0524 82.6457 75.4352 83.2284C76.1792 83.5424 77.7612 84.0714 78.5467 84.0714C80.7316 84.0714 82.5044 81.6669 82.5044 78.6966C82.5099 75.7348 80.7399 73.3274 78.5522 73.3274Z" fill="#D5D5FB"/>
<path d="M64.2218 66.8091C63.4079 64.1386 61.0834 62.5379 59.0303 63.2343C56.9772 63.9279 55.973 66.6575 56.787 69.3309C57.5982 72.0043 59.9254 73.6049 61.9757 72.9085C64.0316 72.2121 65.0358 69.4825 64.2218 66.8091Z" fill="#D5D5FB"/>
<path d="M67.9402 65.0181C70.3707 64.5964 71.923 61.8198 71.4046 58.8107C70.889 55.8016 68.4982 53.7036 66.0678 54.1253C63.6373 54.5444 62.0878 57.3237 62.6034 60.3328C63.1218 63.3392 65.5097 65.4372 67.9402 65.0181Z" fill="#D5D5FB"/>
<path d="M83.9766 63.2343C81.923 62.5379 79.5981 64.1386 78.7867 66.8091C77.9726 69.4853 78.9798 72.2121 81.0306 72.9085C83.0841 73.6049 85.4091 72.0043 86.2233 69.3309C87.0346 66.6603 86.0302 63.9308 83.9766 63.2343Z" fill="#D5D5FB"/>
<path d="M76.07 65.018C78.5011 65.4372 80.8874 63.3413 81.4049 60.3323C81.9224 57.3233 80.3698 54.5466 77.9388 54.1248C75.5077 53.7056 73.1214 55.8015 72.6039 58.8105C72.0864 61.8195 73.639 64.5989 76.07 65.018Z" fill="#D5D5FB"/>
<path d="M22.0566 19.256C21.7855 19.256 21.52 19.2928 21.2656 19.3635C20.8397 19.4795 20.3336 17.6521 18.8816 15.8642C17.9412 14.7072 16.6994 14 15.3415 14C14.0056 14 12.7859 14.6789 11.8511 15.802C10.4074 17.5389 9.92621 19.3918 9.58879 19.3182C9.3869 19.2758 9.17947 19.2532 8.96928 19.2532C6.78161 19.2532 5.00879 21.6605 5.00879 24.6252C5.00879 27.5955 6.78161 30 8.96928 30C9.71049 30 11.2703 29.5078 11.9784 29.2419C13.9558 28.495 17.5568 28.5743 18.9396 29.157C19.6836 29.471 21.2656 30 22.0511 30C24.236 30 26.0088 27.5955 26.0088 24.6252C26.0143 21.6634 24.2443 19.256 22.0566 19.256Z" fill="#D5D5FB"/>
<path d="M7.72621 12.7377C6.91224 10.0671 4.58782 8.46649 2.53471 9.16291C0.481608 9.85654 -0.522569 12.5861 0.291401 15.2595C1.10257 17.9329 3.4298 19.5335 5.48011 18.8371C7.53601 18.1407 8.54018 15.4111 7.72621 12.7377Z" fill="#D5D5FB"/>
<path d="M11.4446 10.9467C13.875 10.5249 15.4274 7.74836 14.909 4.73926C14.3934 1.73016 12.0026 -0.367831 9.57216 0.0539292C7.1417 0.472986 5.59221 3.25228 6.10776 6.26138C6.62614 9.26778 9.01412 11.3658 11.4446 10.9467Z" fill="#D5D5FB"/>
<path d="M27.481 9.16291C25.4274 8.46649 23.1025 10.0672 22.2911 12.7377C21.477 15.4139 22.4842 18.1407 24.5349 18.8371C26.5885 19.5335 28.9135 17.9329 29.7277 15.2595C30.539 12.5889 29.5346 9.85934 27.481 9.16291Z" fill="#D5D5FB"/>
<path d="M19.5744 10.9466C22.0055 11.3658 24.3917 9.26993 24.9093 6.26093C25.4268 3.25193 23.8742 0.475211 21.4432 0.0533632C19.0121 -0.365814 16.6258 1.73007 16.1083 4.73907C15.5908 7.74807 17.1434 10.5275 19.5744 10.9466Z" fill="#D5D5FB"/>
</g>
<defs>
<clipPath id="clip0_67_616">
<rect width="87" height="510.143" fill="white"/>
</clipPath>
<clipPath id="clip1_67_616">
<rect width="30" height="30" fill="white" transform="translate(0 120.143)"/>
</clipPath>
</defs>
</svg>
