<svg width="90" height="90" viewBox="0 0 90 90" fill="none" xmlns="http://www.w3.org/2000/svg">
<path d="M71.5209 22.2842H18.4718C10.7648 22.2842 4.50037 28.8917 4.50037 37.0017V77.5861C4.50037 79.4727 5.95099 81.0008 7.74199 81.0008H82.2588C84.0497 81.0008 85.5004 79.4727 85.5004 77.5861V37.0017C85.5004 28.8917 79.2278 22.2842 71.5209 22.2842ZM18.4718 25.6989H71.5209C77.4368 25.6989 82.2506 30.7698 82.2506 37.0017V41.3982H7.73388V37.0017C7.73388 30.7698 12.5558 25.6989 18.4718 25.6989ZM7.73388 77.5946V44.813H82.2506V77.5861H7.73388V77.5946Z" fill="#605DD3"/>
<path d="M30.644 20.5765C31.5354 20.5765 32.2648 19.8082 32.2648 18.8691V16.6325C32.2648 14.3104 34.0639 12.4152 36.2682 12.4152H53.7325C55.9368 12.4152 57.7359 14.3104 57.7359 16.6325V18.8691C57.7359 19.8082 58.4652 20.5765 59.3567 20.5765C60.2481 20.5765 60.9775 19.8082 60.9775 18.8691V16.6325C60.9775 12.4238 57.7278 9.00049 53.7325 9.00049H36.2682C32.2729 9.00049 29.0232 12.4238 29.0232 16.6325V18.8691C29.0232 19.8082 29.7445 20.5765 30.644 20.5765Z" fill="#605DD3"/>
<path d="M50.9112 65.2407C50.6715 65.2407 50.4368 65.273 50.2118 65.3353C49.8352 65.4374 49.3877 63.8284 48.104 62.2542C47.2725 61.2355 46.1746 60.6128 44.974 60.6128C43.7929 60.6128 42.7145 61.2106 41.888 62.1994C40.6115 63.7288 40.186 65.3602 39.8877 65.2955C39.7092 65.2581 39.5258 65.2382 39.3399 65.2382C37.4057 65.2382 35.8383 67.3578 35.8383 69.9682C35.8383 72.5835 37.4057 74.7006 39.3399 74.7006C39.9953 74.7006 41.3744 74.2672 42.0004 74.0331C43.7488 73.3755 46.9326 73.4453 48.1553 73.9584C48.8131 74.2349 50.2118 74.7006 50.9063 74.7006C52.8381 74.7006 54.4055 72.5835 54.4055 69.9682C54.4104 67.3603 52.8454 65.2407 50.9112 65.2407Z" fill="#9191FC"/>
<path d="M38.2471 59.2928C37.5355 56.9241 35.5034 55.5043 33.7086 56.122C31.9137 56.7373 31.0358 59.1583 31.7474 61.5295C32.4566 63.9007 34.4911 65.3205 36.2835 64.7028C38.0808 64.0851 38.9587 61.664 38.2471 59.2928Z" fill="#9191FC"/>
<path d="M41.2987 57.8951C43.3968 57.5065 44.7368 54.9485 44.2893 52.1763C43.8443 49.404 41.7805 47.4712 39.6824 47.8597C37.5843 48.2458 36.2467 50.8063 36.6918 53.5786C37.1393 56.3483 39.2006 58.2812 41.2987 57.8951Z" fill="#9191FC"/>
<path d="M56.291 56.1191C54.4961 55.5014 52.4641 56.9211 51.7549 59.2899C51.0433 61.6636 51.9237 64.0821 53.7161 64.6998C55.5109 65.3176 57.543 63.8978 58.2546 61.5266C58.9637 59.1579 58.0859 56.7368 56.291 56.1191Z" fill="#9191FC"/>
<path d="M48.6985 57.9128C50.8235 58.3039 52.9093 56.3486 53.3617 53.5415C53.8141 50.7344 52.457 48.144 50.332 47.7505C48.207 47.3594 46.1211 49.3147 45.6688 52.1218C45.2164 54.9289 46.5735 57.5218 48.6985 57.9128Z" fill="#9191FC"/>
</svg>
