<svg width="90" height="90" viewBox="0 0 90 90" fill="none" xmlns="http://www.w3.org/2000/svg">
<path d="M85.4816 49.3742L82.7456 24.4327C82.3352 20.7086 78.9071 17.9009 74.7628 17.9009H61.847C59.9157 16.759 57.8476 15.8061 55.6829 15.0787C54.854 14.8023 53.9206 15.1878 53.6148 15.937C53.309 16.6935 53.7355 17.53 54.5643 17.8064C54.9828 17.9446 55.4012 18.1046 55.8116 18.2646C55.2886 18.541 54.8621 18.9629 54.6126 19.4939C54.162 20.4613 54.3873 21.5742 55.2001 22.3306C58.1695 25.0946 58.8213 25.8438 58.9581 26.0111L67.2789 42.9661C67.5203 43.4534 67.8824 43.8898 68.3331 44.2317L72.1796 47.1339C71.5841 51.5563 70.2402 55.0985 68.0997 57.8698C65.589 53.3092 61.2435 49.3014 55.8841 46.872C53.8481 43.9116 48.5048 43.9044 45.0123 43.9044C41.5279 43.9044 36.1846 43.9116 34.1406 46.872C28.7812 49.2942 24.4357 53.3092 21.925 57.8698C19.8005 55.1131 18.4566 51.5999 17.8531 47.2139L21.6996 44.3117C22.1503 43.9698 22.5204 43.5334 22.7619 43.0461L26.6165 35.1832C26.9786 34.4486 26.6084 33.5903 25.7956 33.263C24.9829 32.9356 24.0333 33.2702 23.6712 34.0049L19.8166 41.8677C19.7764 41.9477 19.712 42.0205 19.6396 42.0787L8.79195 50.2688C8.50225 50.487 8.2206 50.407 8.07575 50.3343C7.9309 50.2688 7.69753 50.1015 7.72972 49.7597L10.4738 24.7091C10.5945 23.6035 11.1739 22.5997 12.0913 21.8651C12.7592 21.3341 12.8316 20.4176 12.2442 19.8139C11.6567 19.2102 10.6428 19.1447 9.97489 19.6757C8.42983 20.8904 7.46417 22.5779 7.26299 24.4254L4.5189 49.476C4.366 50.8944 5.16267 52.24 6.55483 52.9092C7.12618 53.1856 7.75386 53.3165 8.36545 53.3165C9.25064 53.3165 10.1278 53.0401 10.8359 52.5019L14.9561 49.396C15.8735 54.1893 17.7163 58.0008 20.5328 60.9902C19.8971 62.8159 19.543 64.6853 19.543 66.5401C19.543 75.5885 28.2742 81.0002 36.7157 81.0002C39.3954 81.0002 41.7371 80.4183 43.4834 79.3127C44.0869 78.9344 44.5939 78.498 45.0204 78.0179C46.7022 79.8582 49.5831 80.9492 53.2043 80.9492C61.509 80.9492 70.4656 75.443 70.4656 66.5473C70.4656 64.6925 70.1115 62.8232 69.4758 60.9975C72.3084 57.9935 74.1592 54.153 75.0686 49.3305L79.1485 52.4C79.8566 52.9383 80.7338 53.2074 81.619 53.2074C82.2386 53.2074 82.8582 53.0765 83.4296 52.8001C84.8378 52.1309 85.6345 50.7853 85.4816 49.3742ZM45.0284 46.8138C51.5305 46.8138 53.5182 47.5048 53.5182 49.7597C53.5182 53.0546 49.5509 58.4954 45.0284 58.4954C40.5059 58.4954 36.5386 53.0474 36.5386 49.7597C36.5386 47.5048 38.5182 46.8138 45.0284 46.8138ZM53.2285 78.0325C50.0418 78.0325 46.6378 76.9269 46.6378 73.8137C46.6378 73.0136 45.9136 72.359 45.0284 72.359C44.1432 72.359 43.419 73.0136 43.419 73.8137C43.419 75.1376 42.8235 76.185 41.6566 76.9269C40.4737 77.6761 38.7194 78.0907 36.7318 78.0907C30.9378 78.0907 22.778 74.5047 22.778 66.5401C22.778 60.6338 27.0993 54.2985 33.3761 50.618C33.9313 55.1713 38.7516 61.4121 45.0284 61.4121C51.3052 61.4121 56.1174 55.1713 56.6807 50.618C62.9575 54.2985 67.2789 60.6338 67.2789 66.5401C67.2708 74.3811 58.8937 78.0325 53.2285 78.0325ZM81.9408 50.2252C81.804 50.2906 81.5224 50.3707 81.2327 50.1597L70.4012 41.9987C70.3288 41.9405 70.2644 41.8677 70.2242 41.7877L61.8792 24.76C61.7344 24.4618 61.5332 24.0617 58.0649 20.8031H61.3722C61.3803 20.8031 61.3803 20.8031 61.3883 20.8031C61.3964 20.8031 61.3964 20.8031 61.4044 20.8031H74.7789C77.2574 20.8031 79.3094 22.4834 79.5508 24.7164L82.2869 49.6578C82.311 49.9924 82.0776 50.1597 81.9408 50.2252Z" fill="#605DD3"/>
<path d="M30.9378 63.5432C30.9378 62.8231 30.294 62.2412 29.4974 62.2412C28.7007 62.2412 28.0569 62.8231 28.0569 63.5432C28.0569 64.2633 28.7007 64.8452 29.4974 64.8452C30.286 64.8524 30.9378 64.2633 30.9378 63.5432Z" fill="#605DD3"/>
<path d="M26.6084 66.8091C25.8117 66.8091 25.1679 67.391 25.1679 68.1111C25.1679 68.8312 25.8117 69.4131 26.6084 69.4131C27.4051 69.4131 28.0488 68.8312 28.0488 68.1111C28.0488 67.391 27.4051 66.8091 26.6084 66.8091Z" fill="#605DD3"/>
<path d="M30.9379 70.0967C30.1412 70.0967 29.4974 70.6786 29.4974 71.3987C29.4974 72.1188 30.1412 72.7007 30.9379 72.7007C31.7346 72.7007 32.3783 72.1188 32.3783 71.3987C32.3783 70.6786 31.7346 70.0967 30.9379 70.0967Z" fill="#605DD3"/>
<path d="M59.0788 63.5432C59.0788 64.2633 59.7226 64.8452 60.5192 64.8452C61.3159 64.8452 61.9597 64.2633 61.9597 63.5432C61.9597 62.8231 61.3159 62.2412 60.5192 62.2412C59.7226 62.2412 59.0788 62.8304 59.0788 63.5432Z" fill="#605DD3"/>
<path d="M63.4001 69.4204C64.1967 69.4204 64.8405 68.8385 64.8405 68.1184C64.8405 67.3983 64.1967 66.8164 63.4001 66.8164C62.6034 66.8164 61.9596 67.3983 61.9596 68.1184C61.9596 68.8312 62.6034 69.4204 63.4001 69.4204Z" fill="#605DD3"/>
<path d="M59.0789 70.0967C58.2823 70.0967 57.6385 70.6786 57.6385 71.3987C57.6385 72.1188 58.2823 72.7007 59.0789 72.7007C59.8756 72.7007 60.5194 72.1188 60.5194 71.3987C60.5194 70.6786 59.8676 70.0967 59.0789 70.0967Z" fill="#605DD3"/>
<path d="M25.8199 43.4678C25.5463 44.2315 26.0131 45.0534 26.858 45.3008C27.019 45.3517 27.1879 45.3735 27.3489 45.3735C28.0329 45.3735 28.6606 44.9807 28.8779 44.3625C30.6643 39.3218 35.9111 38.2235 37.778 38.2235C38.6632 38.2235 39.3875 37.5688 39.3875 36.7687C39.3875 35.9686 38.6632 35.314 37.778 35.314C34.6477 35.3067 28.1053 37.016 25.8199 43.4678Z" fill="#605DD3"/>
<path d="M50.6534 36.7613C50.6534 37.5614 51.3776 38.2161 52.2628 38.2161C54.1298 38.2161 59.3765 39.3217 61.163 44.3551C61.3803 44.9733 62.016 45.3661 62.692 45.3661C62.8529 45.3661 63.0219 45.3443 63.1828 45.2934C64.0278 45.0461 64.4945 44.2314 64.2209 43.4604C61.9275 37.0086 55.3932 35.2993 52.2548 35.2993C51.3776 35.3066 50.6534 35.9612 50.6534 36.7613Z" fill="#605DD3"/>
<path d="M23.2366 32.55C24.3471 32.55 25.4737 32.3681 26.5681 31.9754L46.3079 24.9562C48.5691 24.1489 50.3556 22.5923 51.3374 20.5629C52.3111 18.5336 52.3594 16.286 51.4742 14.2421C50.5809 12.1982 48.8588 10.5834 46.6137 9.69606C44.3685 8.80867 41.8819 8.7723 39.6207 9.57241L19.8809 16.5842C15.1894 18.2499 12.8718 23.0578 14.7227 27.2984C16.131 30.557 19.5912 32.55 23.2366 32.55ZM29.7468 27.7202L25.4094 17.7553L30.9217 15.7987L36.434 13.8421L40.7714 23.807L35.2591 25.7636L29.7468 27.7202ZM40.7956 12.2855C42.2602 11.7618 43.8696 11.7909 45.3261 12.3655C46.7827 12.9401 47.9012 13.9803 48.4806 15.3041C49.06 16.6279 49.0278 18.0826 48.3921 19.3992C47.7564 20.7157 46.6056 21.7267 45.141 22.2504L43.7811 22.7378L39.4436 12.7728L40.7956 12.2855ZM21.0558 19.2973L22.4158 18.81L26.7532 28.7749L25.3933 29.2623C22.3595 30.3388 18.9072 28.9859 17.7162 26.2364C16.5172 23.4942 18.022 20.3811 21.0558 19.2973Z" fill="#9191FC"/>
<path d="M32.7081 22.2142C32.6195 22.1633 32.531 22.1197 32.4345 22.0833C32.3379 22.0469 32.2333 22.0178 32.1287 21.996C31.9275 21.9597 31.7102 21.9597 31.501 21.996C31.3964 22.0178 31.2998 22.0469 31.2032 22.0833C31.1067 22.1197 31.0101 22.1633 30.9216 22.2142C30.8331 22.2652 30.7526 22.3306 30.6802 22.3961C30.3824 22.6652 30.2054 23.0434 30.2054 23.4217C30.2054 23.8072 30.3824 24.1854 30.6802 24.4545C30.9779 24.7237 31.3964 24.8837 31.8148 24.8837C31.9194 24.8837 32.024 24.8691 32.1287 24.8546C32.2333 24.8328 32.3379 24.8037 32.4345 24.7673C32.531 24.7309 32.6195 24.6873 32.7081 24.6364C32.7966 24.5782 32.877 24.52 32.9575 24.4545C33.2553 24.1854 33.4243 23.8072 33.4243 23.4217C33.4243 23.0434 33.2553 22.6652 32.9575 22.3961C32.877 22.3306 32.7966 22.2652 32.7081 22.2142Z" fill="#605DD3"/>
<path d="M31.7747 19.6172C31.7747 19.2317 31.5977 18.8608 31.2999 18.5916C30.9298 18.2498 30.3665 18.097 29.8434 18.1916C29.7468 18.2134 29.6422 18.2352 29.5456 18.2716C29.4491 18.308 29.3525 18.3589 29.264 18.4098C29.1755 18.4607 29.095 18.5189 29.0226 18.5916C28.9501 18.6571 28.8777 18.7298 28.8214 18.8099C28.7651 18.8899 28.7168 18.9699 28.6765 19.0644C28.6363 19.1517 28.6041 19.239 28.58 19.3336C28.5639 19.4281 28.5478 19.5227 28.5478 19.6172C28.5478 19.7118 28.5639 19.8064 28.58 19.9009C28.6041 19.9955 28.6363 20.0828 28.6765 20.1773C28.7168 20.2646 28.7651 20.3446 28.8214 20.4246C28.8777 20.5046 28.9501 20.5774 29.0226 20.6428C29.095 20.7156 29.1755 20.7738 29.264 20.8247C29.3525 20.8829 29.4491 20.9265 29.5456 20.9629C29.6422 20.9992 29.7468 21.0283 29.8434 21.0429C29.948 21.0647 30.0526 21.072 30.1653 21.072C30.5837 21.072 31.0022 20.9192 31.2999 20.6428C31.5977 20.3737 31.7747 20.0027 31.7747 19.6172Z" fill="#605DD3"/>
<path d="M35.9834 18.1188C35.9834 18.0243 35.9754 17.9297 35.9512 17.8351C35.9271 17.7406 35.903 17.6533 35.8627 17.566C35.8225 17.4787 35.7662 17.3914 35.7098 17.3114C35.6535 17.2314 35.5891 17.1587 35.5086 17.0932C34.9132 16.5477 33.8268 16.5477 33.2393 17.0932C33.1589 17.1587 33.0945 17.2314 33.0301 17.3114C32.9738 17.3914 32.9255 17.4787 32.8853 17.566C32.845 17.6533 32.8128 17.7406 32.7967 17.8351C32.7726 17.9297 32.7646 18.0243 32.7646 18.1188C32.7646 18.5043 32.9335 18.8826 33.2393 19.1517C33.5371 19.4208 33.9475 19.5736 34.374 19.5736C34.8005 19.5736 35.2109 19.4208 35.5086 19.1517C35.8144 18.8826 35.9834 18.5043 35.9834 18.1188Z" fill="#605DD3"/>
<path d="M37.6089 21.6466C37.5847 21.5521 37.5525 21.4575 37.5123 21.3702C37.4721 21.2829 37.4238 21.1956 37.3675 21.1229C37.3111 21.0429 37.2387 20.9629 37.1663 20.8974C37.0938 20.832 37.0053 20.7738 36.9249 20.7156C36.8363 20.6647 36.7398 20.621 36.6432 20.5847C36.5466 20.5483 36.442 20.5192 36.3455 20.5046C35.8143 20.4101 35.2671 20.5628 34.8889 20.8974C34.5912 21.1666 34.4222 21.5448 34.4222 21.9303C34.4222 22.3085 34.5912 22.6867 34.8889 22.9559C35.1867 23.225 35.6051 23.385 36.0316 23.385C36.4501 23.385 36.8685 23.225 37.1663 22.9559C37.464 22.6867 37.6411 22.3158 37.6411 21.9303C37.6411 21.8357 37.625 21.7339 37.6089 21.6466Z" fill="#605DD3"/>
</svg>
