<svg width="90" height="90" viewBox="0 0 90 90" fill="none" xmlns="http://www.w3.org/2000/svg">
<path d="M72.4867 29.3636V25.3087C74.6266 24.6684 76.1805 22.8133 76.1805 20.6217V9.4255C76.1805 6.70853 73.792 4.50049 70.8529 4.50049H19.1565C16.2174 4.50049 13.8288 6.70853 13.8288 9.4255V20.6217C13.8288 22.8133 15.3827 24.6684 17.5227 25.3087V29.3636C15.1962 30.0613 13.5002 32.0805 13.5002 34.4609V80.1486C13.5002 83.1036 16.1019 85.5005 19.2986 85.5005H70.7108C73.9074 85.5005 76.5002 83.0954 76.5002 80.1486V34.4609C76.5091 32.0805 74.8131 30.0613 72.4867 29.3636ZM17.3806 9.41733C17.3806 8.51441 18.1797 7.77566 19.1565 7.77566H70.8617C71.8385 7.77566 72.6376 8.51441 72.6376 9.41733V20.6135C72.6376 21.5164 71.8385 22.2551 70.8617 22.2551H70.7197H67.6119V17.0675C67.6119 16.1645 66.8127 15.4258 65.8359 15.4258C64.8592 15.4258 64.0601 16.1645 64.0601 17.0675V22.2551H59.94V19.8501C59.94 18.9472 59.1408 18.2084 58.1641 18.2084C57.1873 18.2084 56.3882 18.9472 56.3882 19.8501V22.2551H33.6656V19.8501C33.6656 18.9472 32.8664 18.2084 31.8897 18.2084C30.9129 18.2084 30.1138 18.9472 30.1138 19.8501V22.2551H25.9937V17.0675C25.9937 16.1645 25.1945 15.4258 24.2178 15.4258C23.241 15.4258 22.4419 16.1645 22.4419 17.0675V22.2551H19.2897H19.1476C18.1709 22.2551 17.3717 21.5164 17.3717 20.6135V9.41733H17.3806ZM72.9573 80.1568C72.9573 81.2978 71.9539 82.2253 70.7197 82.2253H19.3074C18.0732 82.2253 17.0609 81.2978 17.0609 80.1568V75.2401H58.1641C59.1408 75.2401 59.94 74.5013 59.94 73.5984V39.1561C59.94 38.2532 59.1408 37.5145 58.1641 37.5145H17.052V34.4609C17.052 33.32 18.0554 32.3925 19.2986 32.3925C20.2753 32.3925 21.0744 31.6537 21.0744 30.7508V25.5467H68.9349V29.1009L27.8584 29.1748C26.8816 29.1748 26.0825 29.9135 26.0825 30.8164C26.0825 31.7194 26.8816 32.4581 27.8584 32.4581L70.5598 32.3843C70.6042 32.3843 70.6575 32.4007 70.7019 32.4007C71.9362 32.4007 72.9395 33.3282 72.9395 34.4692V80.1568H72.9573ZM17.8601 71.9567V40.7978H56.3793V71.9567H17.8601Z" fill="#605DD3"/>
</svg>
