<svg width="90" height="90" viewBox="0 0 90 90" fill="none" xmlns="http://www.w3.org/2000/svg">
<path d="M50.9111 49.0405C50.6714 49.0405 50.4367 49.0728 50.2117 49.1351C49.8351 49.2372 49.3876 47.6282 48.1038 46.054C47.2724 45.0353 46.1745 44.4126 44.9738 44.4126C43.7927 44.4126 42.7144 45.0104 41.8878 45.9992C40.6114 47.5286 40.1859 49.16 39.8876 49.0953C39.7091 49.0579 39.5257 49.038 39.3398 49.038C37.4056 49.038 35.8381 51.1576 35.8381 53.768C35.8381 56.3833 37.4056 58.5004 39.3398 58.5004C39.9952 58.5004 41.3743 58.067 42.0003 57.8329C43.7487 57.1753 46.9325 57.2451 48.1552 57.7582C48.813 58.0347 50.2117 58.5004 50.9062 58.5004C52.838 58.5004 54.4054 56.3833 54.4054 53.768C54.4103 51.1601 52.8453 49.0405 50.9111 49.0405Z" fill="#605DD3"/>
<path d="M38.247 43.0926C37.5354 40.7239 35.5033 39.3041 33.7085 39.9218C31.9136 40.5371 31.0357 42.9581 31.7473 45.3293C32.4564 47.7005 34.491 49.1203 36.2834 48.5026C38.0807 47.8849 38.9585 45.4638 38.247 43.0926Z" fill="#605DD3"/>
<path d="M41.2986 41.6954C43.3967 41.3068 44.7367 38.7488 44.2892 35.9766C43.8442 33.2043 41.7803 31.2715 39.6823 31.66C37.5842 32.0461 36.2466 34.6066 36.6916 37.3789C37.1391 40.1486 39.2005 42.0815 41.2986 41.6954Z" fill="#605DD3"/>
<path d="M56.2909 39.9194C54.496 39.3017 52.464 40.7214 51.7548 43.0902C51.0432 45.4639 51.9235 47.8824 53.716 48.5001C55.5108 49.1178 57.5429 47.6981 58.2545 45.3269C58.9636 42.9582 58.0857 40.5371 56.2909 39.9194Z" fill="#605DD3"/>
<path d="M48.6984 41.7126C50.8234 42.1037 52.9092 40.1484 53.3616 37.3413C53.814 34.5342 52.4568 31.9438 50.3319 31.5503C48.2069 31.1592 46.121 33.1145 45.6686 35.9216C45.2163 38.7287 46.5734 41.3216 48.6984 41.7126Z" fill="#605DD3"/>
<path d="M82.2586 28.794H61.2043V7.74178C61.2043 5.95097 59.7537 4.50049 57.9627 4.50049H32.0378C30.2468 4.50049 28.7962 5.95097 28.7962 7.74178V28.794H7.74187C5.95087 28.794 4.50024 30.2445 4.50024 32.0353V57.9657C4.50024 59.7565 5.95087 61.207 7.74187 61.207H28.7962V82.2592C28.7962 84.05 30.2468 85.5005 32.0378 85.5005H57.9627C59.7537 85.5005 61.2043 84.05 61.2043 82.2592V61.207H82.2586C84.0496 61.207 85.5002 59.7565 85.5002 57.9657V32.0353C85.5002 30.2526 84.0496 28.794 82.2586 28.794ZM82.2586 57.9657H61.2043C59.4133 57.9657 57.9627 59.4162 57.9627 61.207V82.2592H32.0378V61.207C32.0378 59.4162 30.5872 57.9657 28.7962 57.9657H7.74187V32.0353H28.7962C30.5872 32.0353 32.0378 30.5848 32.0378 28.794V7.74178H57.9627V28.794C57.9627 30.5848 59.4133 32.0353 61.2043 32.0353H82.2586V57.9657Z" fill="#9191FC"/>
</svg>
