<svg width="90" height="90" viewBox="0 0 90 90" fill="none" xmlns="http://www.w3.org/2000/svg">
<path d="M80.6828 72.2141L64.9225 55.0339C64.9933 54.9651 65.0698 54.8996 65.1316 54.8235C65.6525 54.1794 66.0813 53.0378 65.1731 51.2561C65.1227 51.1582 65.06 51.0675 64.9868 50.9866L42.5825 26.5712C42.5801 26.5688 42.5777 26.5656 42.5744 26.5623L35.1801 18.5042C35.1451 18.4621 35.1101 18.4209 35.0694 18.3837L32.3521 15.4223C30.1459 13.0159 26.3779 12.8452 23.9511 15.0436C21.5349 17.246 21.364 20.9907 23.5695 23.3897L52.3434 54.7474C52.5029 54.9214 52.7112 55.046 52.9407 55.1051C53.9043 55.3519 55.8037 55.7912 57.8439 56.0396L59.8622 58.2364L58.7888 60.7269C58.6122 61.1363 58.6757 61.6088 58.9532 61.9576C59.1737 62.2343 64.3854 68.768 67.9442 71.7448C70.5947 73.9602 75.0902 74.3235 77.7514 74.3235C78.9615 74.3235 79.7924 74.2482 79.8958 74.2385C80.3556 74.1948 80.7519 73.8963 80.9179 73.4666C81.084 73.037 80.9944 72.5531 80.6828 72.2141ZM31.7938 28.7494L34.6576 21.5352L40.3071 27.6919L37.4458 34.9093L31.7938 28.7494ZM25.5991 16.8358C27.0273 15.5412 29.2482 15.6399 30.5495 17.0583L32.8258 19.5383L29.9619 26.7525L25.3753 21.7537C24.0748 20.3401 24.1766 18.132 25.5991 16.8358ZM39.2785 36.9062L42.1398 29.6888L63.0637 52.4924C63.2818 52.9625 63.2851 53.232 63.2289 53.3015C63.1402 53.4108 62.9848 53.5014 62.7781 53.5742C62.6861 53.592 62.599 53.6139 62.512 53.6527C61.6689 53.8542 60.2309 53.8526 58.5178 53.6673C58.4991 53.6656 58.482 53.6616 58.4641 53.6608C57.0643 53.5062 55.4871 53.2311 53.9018 52.842L39.2785 36.9062ZM69.5181 69.8886C66.7308 67.5567 62.6723 62.6688 61.3246 61.0141L62.42 58.4743C62.608 58.0365 62.5225 57.5292 62.1995 57.1773L61.3067 56.2063C61.747 56.1836 62.1702 56.1391 62.5706 56.0696L77.0841 71.8912C74.5962 71.8249 71.3044 71.3823 69.5181 69.8886Z" fill="#605DD3"/>
<path d="M59.4205 74.0728H10.2207C9.54688 74.0728 9 74.6157 9 75.2864C9 75.9572 9.54688 76.5001 10.2207 76.5001H59.4205C60.0943 76.5001 60.6412 75.9572 60.6412 75.2864C60.6412 74.6157 60.0943 74.0728 59.4205 74.0728Z" fill="#9191FC"/>
</svg>
