<svg width="90" height="90" viewBox="0 0 90 90" fill="none" xmlns="http://www.w3.org/2000/svg">
<path d="M80.6377 9.36083C80.1547 8.87972 79.3724 8.87972 78.8893 9.36083L63.9675 24.2528L62.1079 22.3983C61.8762 22.1672 61.5614 22.0373 61.2333 22.0373C60.9052 22.0373 60.5911 22.1672 60.3587 22.3991L55.4012 27.3483L51.6275 23.5826C51.3959 23.3515 51.081 23.2215 50.7529 23.2215C50.4248 23.2215 50.1108 23.3515 49.8783 23.5826L44.5359 28.9125C44.5334 28.915 44.531 28.915 44.5285 28.9175C44.526 28.9199 44.526 28.9224 44.5235 28.9249L37.4896 35.9432C37.4855 35.9473 37.4806 35.9482 37.4765 35.9515C37.4723 35.9547 37.4715 35.9605 37.4682 35.9646L30.4442 42.9723C30.4393 42.9772 30.4327 42.978 30.4285 42.983C30.4244 42.9879 30.4228 42.9937 30.4178 42.9986L23.3979 50.0021C23.3922 50.0079 23.3848 50.0087 23.379 50.0145C23.3732 50.0202 23.3716 50.0276 23.3666 50.0334L17.7901 55.5969C17.5585 55.828 17.4282 56.1422 17.4282 56.4695C17.4282 56.796 17.5585 57.1101 17.7901 57.342L21.5647 61.107L14.886 67.7684L11.1107 64.001C10.6276 63.5191 9.84534 63.5191 9.36229 64.001C8.87924 64.4829 8.87924 65.2634 9.36229 65.7453L19.4701 75.8304C19.4717 75.832 19.4725 75.8345 19.4742 75.837C19.4758 75.8394 19.4783 75.8394 19.4808 75.8411L24.289 80.639C24.5306 80.8799 24.8471 81 25.1636 81C25.4802 81 25.7967 80.8799 26.0382 80.639C26.5213 80.157 26.5213 79.3766 26.0382 78.8947L22.0972 74.9644L28.7774 68.3022L32.5545 72.0704C32.796 72.3113 33.1125 72.4314 33.4291 72.4314C33.7456 72.4314 34.0621 72.3113 34.3037 72.0704L66.3886 40.056C66.8716 39.5741 66.8716 38.7937 66.3886 38.3117L62.6157 34.5476L67.5731 29.5927C68.0553 29.1107 68.0545 28.3303 67.5723 27.8484L65.7159 25.998L80.6377 11.1051C81.1208 10.6232 81.1208 9.84193 80.6377 9.36083ZM20.3488 73.2193L16.6336 69.5127L23.3122 62.8505L27.0274 66.557L20.3488 73.2193ZM33.4291 69.4527L24.1951 60.2418C24.1926 60.2394 24.1918 60.2352 24.1893 60.2328C24.1868 60.2303 24.1827 60.2295 24.1802 60.227L20.4131 56.4695L24.2569 52.6346L28.9143 57.2795C29.1558 57.5205 29.4723 57.6406 29.7889 57.6406C30.1054 57.6406 30.4219 57.5205 30.6635 57.2795C31.1457 56.7976 31.1457 56.0163 30.6635 55.5352L26.0061 50.8903L31.3064 45.6023L35.9605 50.2456C36.2021 50.4865 36.5186 50.6066 36.8351 50.6066C37.1517 50.6066 37.4682 50.4865 37.7097 50.2456C38.1928 49.7636 38.1928 48.9824 37.7097 48.5013L33.0556 43.858L38.356 38.57L43.015 43.2141C43.2566 43.455 43.5723 43.5751 43.8888 43.5751C44.2054 43.5751 44.5219 43.455 44.7634 43.2132C45.2456 42.7313 45.2456 41.95 44.7626 41.4689L40.1044 36.8257L45.4064 31.536L50.0613 36.1809C50.302 36.4219 50.6194 36.5419 50.9359 36.5419C51.2524 36.5419 51.569 36.4219 51.8105 36.1809C52.2936 35.6998 52.2936 34.9185 51.8105 34.4366L47.1556 29.7917L50.7554 26.1994L54.5233 29.9595C54.5258 29.9619 54.5258 29.9644 54.5283 29.966L59.9952 35.4194L59.9976 35.4218L63.7672 39.1835L33.4291 69.4527ZM60.8673 32.8017L57.1504 29.0926L61.2341 25.0152L63.088 26.8639C63.0896 26.8656 63.0905 26.8689 63.0921 26.8705C63.0938 26.8722 63.0971 26.873 63.0987 26.8746L64.9501 28.7209L60.8673 32.8017Z" fill="#605DD3"/>
</svg>
