<svg width="40" height="40" viewBox="0 0 40 40" fill="none" xmlns="http://www.w3.org/2000/svg">
<g clip-path="url(#clip0_226_798)">
<path d="M37.5 5H2.5C1.83696 5 1.20107 5.26339 0.732233 5.73223C0.263392 6.20107 0 6.83696 0 7.5V32.5C0 33.163 0.263392 33.7989 0.732233 34.2678C1.20107 34.7366 1.83696 35 2.5 35H37.5C38.163 35 38.7989 34.7366 39.2678 34.2678C39.7366 33.7989 40 33.163 40 32.5V7.5C40 6.83696 39.7366 6.20107 39.2678 5.73223C38.7989 5.26339 38.163 5 37.5 5ZM35.575 32.5H4.575L13.325 23.45L11.525 21.7125L2.5 31.05V9.4L18.0375 24.8625C18.5059 25.3281 19.1395 25.5895 19.8 25.5895C20.4605 25.5895 21.0941 25.3281 21.5625 24.8625L37.5 9.0125V30.8875L28.3 21.6875L26.5375 23.45L35.575 32.5ZM4.1375 7.5H35.475L19.8 23.0875L4.1375 7.5Z" fill="#605DD3"/>
</g>
<defs>
<clipPath id="clip0_226_798">
<rect width="40" height="40" fill="white"/>
</clipPath>
</defs>
</svg>
