<svg width="40" height="40" viewBox="0 0 40 40" fill="none" xmlns="http://www.w3.org/2000/svg">
<path d="M23.8829 0V2.48042C31.4021 2.48042 37.5204 8.60087 37.5204 16.1228H40C40 7.23292 32.7696 0 23.8829 0ZM11.0511 3.72808C10.4015 3.72808 9.75061 3.94015 9.22122 4.36679L9.16047 4.4164L5.26137 8.43964L5.34443 8.36151C4.05506 9.47274 3.698 11.2289 4.25219 12.7047C5.29732 15.7185 7.95913 21.5462 13.2146 26.7948C18.4787 32.0682 24.3651 34.618 27.2774 35.7553L27.3071 35.7652L27.3356 35.7752C28.0648 36.0163 28.8439 36.0644 29.5972 35.9149C30.3504 35.7654 31.0521 35.4233 31.634 34.9219L31.6712 34.8909L35.5442 31.0152C36.5732 29.9858 36.5732 28.1826 35.5442 27.1544L30.4649 22.0671C29.4334 21.0352 27.6307 21.0352 26.5992 22.0671L24.1395 24.5277C23.2593 24.1072 21.0921 23.0171 19.0316 21.0526C17.0008 19.1129 15.9631 16.8731 15.5875 16.0062L18.0671 13.5258C19.1543 12.4381 19.2163 10.5691 17.9629 9.56948L18.0757 9.6749L12.9406 4.4164L12.8823 4.36679C12.3628 3.95087 11.7165 3.72546 11.0511 3.72808ZM23.8829 4.96085V7.44127C28.6672 7.44127 32.5613 11.3355 32.5613 16.1228H35.0409C35.0409 9.96883 30.0359 4.96085 23.8829 4.96085ZM11.0536 6.20106C11.1429 6.20106 11.2297 6.23455 11.3152 6.30028L16.3574 11.4645L16.4181 11.5141C16.4033 11.5017 16.4653 11.6208 16.314 11.7721L12.648 15.4406L12.9306 16.1897C12.9306 16.1897 14.3304 19.9947 17.3207 22.8484C20.2615 25.6538 23.8878 27.1867 23.8878 27.1867L24.6602 27.5166L28.3523 23.822C28.5618 23.6136 28.5023 23.6136 28.7118 23.822L33.7912 28.9093C34.0019 29.1202 34.0019 29.0507 33.7912 29.2628L30.0136 33.0417C29.4383 33.5304 28.8445 33.6581 28.1291 33.4212C25.326 32.3249 19.8399 29.9238 14.9676 25.0424C10.0606 20.1398 7.51653 14.57 6.58421 11.8713L6.57925 11.8564L6.57181 11.8391C6.38461 11.343 6.52222 10.6224 6.96234 10.2429L7.00326 10.2057L10.7895 6.30028C10.8642 6.23896 10.9571 6.20407 11.0536 6.20106ZM23.8829 9.9217V12.4021C25.9335 12.4021 27.6022 14.0714 27.6022 16.1228H30.0818C30.0818 12.7035 27.3009 9.9217 23.8829 9.9217Z" fill="#EFE05D"/>
</svg>
