<svg width="746" height="746" viewBox="0 0 746 746" fill="none" xmlns="http://www.w3.org/2000/svg">
<path d="M700.393 349.819L700.393 349.813C699.773 317.09 705.552 282.408 711.164 248.726C712.531 240.524 713.887 232.382 715.139 224.342C721.549 183.177 725.209 144.73 713.781 114.201L713.78 114.196C702.629 83.9767 676.364 61.3442 642.934 45.9412C609.511 30.5418 569.032 22.4221 529.673 21.1731C454.052 18.7574 382.712 42.0335 312.709 64.8731C310.318 65.6533 307.928 66.433 305.54 67.2112C303.25 67.9572 300.962 68.7017 298.677 69.4453C228.769 92.1924 161.138 114.198 112.689 158.172C62.6878 203.555 33.5502 272.438 24.3462 343.911L24.3452 343.918C14.6278 415.405 25.3968 488.218 65.6387 537.513C105.908 586.34 175.82 610.819 237.363 629.868L237.37 629.87C253.517 635 269.034 639.751 284.412 644.46C327.565 657.673 369.621 670.55 421.414 690.504L421.42 690.507C428.906 693.444 436.589 696.527 444.421 699.669C473.368 711.283 504.345 723.712 534.854 732.619C573.63 743.94 611.457 749.508 643.209 740.569C674.925 731.641 700.62 708.059 718.273 677.537C735.924 647.015 745.491 609.624 744.981 573.229C744.478 537.375 734.202 502.467 723.602 466.458L723.112 464.793C712.353 428.237 701.422 390.546 700.393 349.819Z" stroke="#D5D5FB" stroke-width="2"/>
<path opacity="0.5" d="M623.48 721.532C687.543 703.498 727.005 626.353 725.981 553.215C724.955 480.077 683.443 410.947 681.393 329.794C679.855 248.641 717.78 155.466 694.718 93.85C672.168 32.7349 588.63 2.67828 509.705 0.173584C431.292 -2.33118 357.492 22.7161 285.23 46.2604C212.967 69.8047 142.242 91.8462 92.017 137.432C41.7919 183.018 12.5794 252.148 3.35436 323.783C-6.38316 395.418 4.37935 468.555 44.8669 518.149C85.3545 567.241 155.567 591.787 217.067 610.823C278.567 630.36 330.842 644.387 401.055 671.437C471.268 698.989 559.418 739.566 623.48 721.532Z" fill="#D5D5FB"/>
</svg>
