<svg width="260" height="192" viewBox="0 0 260 192" fill="none" xmlns="http://www.w3.org/2000/svg">
<path d="M18.4308 38.2845C28.6372 21.4132 48.5861 7 71.1639 7C93.7417 7.11172 118.794 21.6367 142.918 27.1115C167.197 32.5863 190.703 28.8992 210.342 33.8153C230.137 38.7314 246.219 52.2508 254.106 68.2283C261.838 84.094 261.374 102.306 256.117 120.518C250.704 138.73 240.498 156.831 222.25 168.897C204.157 180.853 178.177 186.886 151.423 190.014C124.516 193.143 96.8346 193.255 75.03 185.322C53.2254 177.277 37.4518 161.076 27.2454 144.317C16.8843 127.669 12.245 110.462 10.08 92.3621C7.91505 74.2617 8.22433 55.0441 18.4308 38.2845Z" fill="white"/>
<path d="M10.2848 31.8047L10.2864 31.8021C20.3509 15.1654 40.0051 1.00079 62.162 0.999997C73.2626 1.05558 85.026 4.65748 97.1242 8.98614C99.7142 9.91281 102.32 10.8732 104.937 11.8373C114.484 15.3558 124.168 18.9242 133.697 21.0867L133.698 21.087C145.942 23.848 157.978 24.2955 169.337 24.6723L170.054 24.6961C181.181 25.0643 191.607 25.4093 201.099 27.7854L201.101 27.7858C220.612 32.6316 236.453 45.9589 244.208 61.6679C251.794 77.2344 251.372 95.1702 246.156 113.238C240.788 131.3 230.691 149.165 212.698 161.063C194.809 172.883 169.026 178.897 142.308 182.021C115.442 185.145 87.953 185.233 66.374 177.383C44.837 169.436 29.2228 153.42 19.0995 136.797L19.0995 136.797L19.0944 136.788C8.83244 120.3 4.22622 103.245 2.07297 85.2433C-0.0837887 67.2119 0.255743 48.2731 10.2848 31.8047Z" stroke="white" stroke-width="2"/>
</svg>
