<svg width="324" height="428" viewBox="0 0 324 428" fill="none" xmlns="http://www.w3.org/2000/svg">
<g clip-path="url(#clip0_172_204)">
<path d="M163.763 276.037C164.003 275.912 164.256 275.822 164.514 275.768C164.946 275.674 164.551 273.819 165.014 271.563C165.315 270.103 166.09 268.902 167.295 268.276C168.48 267.659 169.875 267.699 171.223 268.264C173.305 269.138 174.587 270.56 174.852 270.339C175.012 270.208 175.185 270.092 175.372 269.995C177.313 268.986 179.996 270.303 181.364 272.933C182.735 275.569 182.272 278.52 180.331 279.529C179.674 279.871 178.063 280.155 177.312 280.245C175.213 280.496 172.055 282.228 171.097 283.383C170.582 284.005 169.423 285.204 168.726 285.566C166.788 286.575 164.105 285.26 162.734 282.625C161.363 280 161.822 277.047 163.763 276.037Z" fill="#D5D5FB"/>
<path d="M173.269 263.656C172.759 260.911 174.082 258.418 176.225 258.089C178.366 257.756 180.517 259.715 181.029 262.462C181.543 265.208 180.217 267.702 178.076 268.03C175.931 268.361 173.781 266.403 173.269 263.656Z" fill="#D5D5FB"/>
<path d="M168.873 263.083C166.522 263.83 163.864 262.083 162.935 259.175C162.004 256.267 163.157 253.303 165.507 252.555C167.857 251.805 170.514 253.556 171.445 256.463C172.373 259.37 171.223 262.333 168.873 263.083Z" fill="#D5D5FB"/>
<path d="M154.096 269.457C155.597 267.891 158.398 268.239 160.35 270.233C162.308 272.232 162.672 275.116 161.174 276.68C159.674 278.245 156.873 277.898 154.917 275.902C152.964 273.908 152.596 271.023 154.096 269.457Z" fill="#D5D5FB"/>
<path d="M161.874 267.019C159.911 268.513 156.826 267.755 154.979 265.324C153.131 262.893 153.227 259.713 155.189 258.217C157.152 256.724 160.236 257.482 162.084 259.912C163.932 262.343 163.837 265.525 161.874 267.019Z" fill="#D5D5FB"/>
<path d="M233.203 205.764C233.467 205.703 233.734 205.68 233.998 205.691C234.439 205.709 234.523 203.814 235.537 201.746C236.194 200.408 237.246 199.44 238.57 199.136C239.871 198.836 241.212 199.224 242.375 200.109C244.171 201.478 245.055 203.176 245.367 203.029C245.555 202.942 245.752 202.874 245.957 202.827C248.089 202.336 250.356 204.285 251.02 207.174C251.686 210.069 250.497 212.809 248.365 213.3C247.643 213.466 246.012 213.336 245.263 213.236C243.168 212.952 239.677 213.836 238.46 214.714C237.805 215.187 236.382 216.057 235.616 216.234C233.487 216.723 231.22 214.778 230.555 211.883C229.886 208.998 231.071 206.255 233.203 205.764Z" fill="#D5D5FB"/>
<path d="M245.532 196.976C245.727 194.191 247.633 192.109 249.79 192.328C251.946 192.543 253.537 194.978 253.343 197.766C253.151 200.553 251.242 202.635 249.088 202.416C246.928 202.199 245.338 199.764 245.532 196.976Z" fill="#D5D5FB"/>
<path d="M242.373 195.242C239.91 195.376 237.775 193.018 237.606 189.969C237.434 186.921 239.294 184.34 241.757 184.206C244.22 184.069 246.353 186.431 246.524 189.479C246.693 192.525 244.836 195.105 242.373 195.242Z" fill="#D5D5FB"/>
<path d="M225.899 197.364C227.744 196.225 230.368 197.264 231.758 199.684C233.151 202.11 232.78 204.993 230.938 206.132C229.092 207.271 226.468 206.233 225.075 203.81C223.686 201.389 224.053 198.504 225.899 197.364Z" fill="#D5D5FB"/>
<path d="M234.166 197.148C231.891 198.102 229.096 196.594 227.917 193.778C226.739 190.961 227.63 187.907 229.904 186.951C232.179 185.997 234.975 187.505 236.153 190.321C237.332 193.137 236.442 196.194 234.166 197.148Z" fill="#D5D5FB"/>
<path d="M148.222 153.017C148.444 152.861 148.682 152.739 148.931 152.65C149.346 152.5 148.708 150.714 148.866 148.416C148.968 146.929 149.576 145.636 150.687 144.854C151.779 144.085 153.167 143.938 154.578 144.318C156.758 144.907 158.219 146.145 158.452 145.89C158.593 145.739 158.749 145.601 158.921 145.48C160.71 144.221 163.545 145.168 165.252 147.592C166.962 150.021 166.897 153.008 165.108 154.267C164.502 154.694 162.944 155.19 162.212 155.38C160.165 155.908 157.266 158.046 156.471 159.318C156.043 160.003 155.054 161.347 154.412 161.799C152.626 163.057 149.792 162.112 148.082 159.683C146.372 157.264 146.434 154.277 148.222 153.017Z" fill="#D5D5FB"/>
<path d="M155.67 140.361C154.798 137.709 155.777 135.062 157.856 134.449C159.934 133.834 162.327 135.488 163.2 138.143C164.076 140.795 163.095 143.444 161.018 144.055C158.936 144.669 156.543 143.016 155.67 140.361Z" fill="#D5D5FB"/>
<path d="M151.663 139.987C149.433 141.042 146.565 139.665 145.257 136.906C143.946 134.149 144.693 131.057 146.923 130.003C149.151 128.946 152.018 130.327 153.329 133.084C154.636 135.84 153.891 138.931 151.663 139.987Z" fill="#D5D5FB"/>
<path d="M137.304 148.628C138.582 146.876 141.404 146.846 143.605 148.563C145.812 150.282 146.558 153.092 145.282 154.842C144.004 156.594 141.181 156.623 138.977 154.906C136.776 153.19 136.026 150.38 137.304 148.628Z" fill="#D5D5FB"/>
<path d="M145.219 144.947C143.473 146.689 140.315 146.349 138.16 144.187C136.004 142.025 135.675 138.86 137.42 137.116C139.166 135.373 142.324 135.713 144.479 137.876C146.635 140.038 146.966 143.204 145.219 144.947Z" fill="#D5D5FB"/>
<path d="M204.828 87.2887C205.065 87.1568 205.315 87.0597 205.571 86.9976C206 86.8917 205.553 85.0489 205.951 82.7805C206.209 81.3121 206.95 80.0899 208.136 79.429C209.303 78.7789 210.699 78.7784 212.062 79.3046C214.169 80.1193 215.491 81.5038 215.75 81.2753C215.906 81.14 216.076 81.0192 216.26 80.917C218.171 79.8523 220.891 81.0925 222.334 83.6824C223.779 86.2772 223.401 89.2405 221.49 90.3052C220.842 90.6659 219.24 90.9951 218.492 91.1073C216.401 91.4173 213.294 93.239 212.37 94.4211C211.873 95.0575 210.748 96.2895 210.062 96.6718C208.153 97.7351 205.434 96.4973 203.989 93.9025C202.542 91.3179 202.917 88.3534 204.828 87.2887Z" fill="#D5D5FB"/>
<path d="M213.208 74.4171C212.62 71.688 213.871 69.1584 216.004 68.7676C218.135 68.3744 220.34 70.2701 220.93 73.0017C221.523 75.7319 220.269 78.2628 218.139 78.6523C216.004 79.0444 213.798 77.1487 213.208 74.4171Z" fill="#D5D5FB"/>
<path d="M209.924 73.9642C207.596 74.7786 204.888 73.1085 203.877 70.2275C202.863 67.3479 203.93 64.3516 206.259 63.5372C208.586 62.7204 211.292 64.3943 212.306 67.2739C213.316 70.1525 212.251 73.1474 209.924 73.9642Z" fill="#D5D5FB"/>
<path d="M194.876 80.4857C196.331 78.8779 199.141 79.1447 201.15 81.0828C203.164 83.0244 203.611 85.8967 202.158 87.5031C200.703 89.1109 197.893 88.8441 195.881 86.9049C193.872 84.9668 193.421 82.0935 194.876 80.4857Z" fill="#D5D5FB"/>
<path d="M202.9 77.8533C200.98 79.4026 197.875 78.733 195.959 76.3563C194.042 73.9795 194.047 70.7982 195.966 69.2466C197.885 67.6973 200.99 68.3668 202.906 70.7436C204.823 73.1203 204.819 76.304 202.9 77.8533Z" fill="#D5D5FB"/>
<path d="M118.365 33.0893C118.553 32.8942 118.764 32.7287 118.991 32.5948C119.371 32.3688 118.407 30.7354 118.129 28.4489C117.95 26.9686 118.304 25.5839 119.247 24.6068C120.174 23.6456 121.51 23.2395 122.967 23.3469C125.219 23.5145 126.886 24.4551 127.068 24.1613C127.177 23.9865 127.305 23.8215 127.451 23.6703C128.97 22.0962 131.933 22.4926 134.066 24.5517C136.203 26.6147 136.702 29.5605 135.183 31.1346C134.668 31.6679 133.231 32.4484 132.548 32.7732C130.637 33.6774 128.193 36.3235 127.652 37.7233C127.362 38.4767 126.644 39.9824 126.098 40.5476C124.581 42.1198 121.62 41.7253 119.483 39.6623C117.348 37.6091 116.846 34.6634 118.365 33.0893Z" fill="#D5D5FB"/>
<path d="M123.483 19.0022C122.127 16.5616 122.59 13.7773 124.516 12.7837C126.441 11.7882 129.102 12.9614 130.46 15.404C131.82 17.8445 131.356 20.6308 129.431 21.6224C127.502 22.618 124.841 21.4447 123.483 19.0022Z" fill="#D5D5FB"/>
<path d="M119.68 19.3358C117.689 20.7917 114.613 19.9801 112.808 17.5171C111.001 15.0562 111.152 11.8787 113.144 10.4228C115.133 8.96499 118.208 9.78044 120.015 12.2414C121.818 14.7025 121.669 17.878 119.68 19.3358Z" fill="#D5D5FB"/>
<path d="M106.659 30.1357C107.584 28.1743 110.351 27.6131 112.835 28.8842C115.326 30.1571 116.588 32.7758 115.665 34.7351C114.74 36.6965 111.974 37.2577 109.485 35.9867C107.001 34.7156 105.734 32.097 106.659 30.1357Z" fill="#D5D5FB"/>
<path d="M113.692 25.263C112.305 27.3034 109.14 27.5647 106.616 25.8472C104.092 24.1297 103.172 21.0839 104.557 19.0416C105.944 17.0012 109.109 16.7399 111.633 18.4574C114.157 20.1749 115.078 23.2226 113.692 25.263Z" fill="#D5D5FB"/>
<path d="M231.715 342.297C231.444 342.295 231.178 342.329 230.923 342.398C230.496 342.51 230.007 340.678 228.571 338.878C227.641 337.713 226.405 336.995 225.047 336.983C223.711 336.972 222.486 337.64 221.541 338.755C220.082 340.48 219.584 342.328 219.247 342.252C219.046 342.208 218.839 342.183 218.628 342.182C216.441 342.163 214.647 344.555 214.62 347.519C214.594 350.489 216.345 352.909 218.533 352.928C219.274 352.934 220.838 352.456 221.549 352.196C223.533 351.466 227.133 351.576 228.51 352.171C229.252 352.491 230.829 353.034 231.614 353.04C233.799 353.059 235.593 350.67 235.62 347.7C235.651 344.738 233.903 342.316 231.715 342.297Z" fill="#D5D5FB"/>
<path d="M217.734 335.199C216.944 332.522 214.633 330.901 212.574 331.58C210.515 332.256 209.487 334.977 210.277 337.657C211.064 340.337 213.377 341.958 215.433 341.279C217.495 340.601 218.524 337.88 217.734 335.199Z" fill="#D5D5FB"/>
<path d="M221.028 333.603C223.462 333.202 225.039 330.439 224.548 327.426C224.059 324.413 221.687 322.294 219.253 322.695C216.819 323.093 215.244 325.859 215.733 328.872C216.225 331.883 218.594 334.001 221.028 333.603Z" fill="#D5D5FB"/>
<path d="M237.361 331.626C235.313 330.912 232.974 332.493 232.139 335.156C231.301 337.825 232.284 340.56 234.329 341.274C236.376 341.988 238.715 340.408 239.553 337.742C240.388 335.078 239.408 332.34 237.361 331.626Z" fill="#D5D5FB"/>
<path d="M228.636 333.184C231.064 333.624 233.468 331.549 234.013 328.544C234.557 325.54 233.029 322.75 230.602 322.307C228.175 321.867 225.77 323.942 225.226 326.947C224.681 329.951 226.209 332.744 228.636 333.184Z" fill="#D5D5FB"/>
<path d="M143.684 393.631C143.434 393.528 143.174 393.461 142.912 393.429C142.474 393.374 142.701 391.492 142.039 389.286C141.61 387.858 140.73 386.731 139.475 386.214C138.24 385.705 136.853 385.869 135.562 386.552C133.566 387.608 132.416 389.139 132.132 388.942C131.961 388.826 131.778 388.726 131.584 388.646C129.561 387.813 127.005 389.365 125.877 392.106C124.747 394.853 125.471 397.752 127.494 398.584C128.18 398.867 129.809 399.005 130.565 399.029C132.678 399.091 135.978 400.535 137.035 401.601C137.603 402.174 138.865 403.266 139.591 403.565C141.611 404.396 144.166 402.848 145.296 400.101C146.428 397.364 145.707 394.464 143.684 393.631Z" fill="#D5D5FB"/>
<path d="M133.443 381.804C133.706 379.024 132.166 376.659 130.003 376.521C127.84 376.381 125.873 378.523 125.608 381.305C125.341 384.086 126.884 386.453 129.045 386.589C131.211 386.728 133.178 384.586 133.443 381.804Z" fill="#D5D5FB"/>
<path d="M136.563 381.566C138.971 382.101 141.463 380.124 142.128 377.144C142.796 374.165 141.384 371.315 138.976 370.779C136.569 370.242 134.079 372.222 133.411 375.201C132.746 378.179 134.156 381.028 136.563 381.566Z" fill="#D5D5FB"/>
<path d="M153.324 385.63C151.69 384.205 148.931 384.8 147.164 386.961C145.393 389.125 145.287 392.031 146.918 393.455C148.552 394.881 151.311 394.286 153.081 392.124C154.848 389.963 154.957 387.056 153.324 385.63Z" fill="#D5D5FB"/>
<path d="M144.17 384.571C146.259 385.885 149.263 384.855 150.887 382.269C152.51 379.684 152.131 376.525 150.043 375.209C147.955 373.896 144.951 374.926 143.327 377.511C141.704 380.097 142.082 383.258 144.17 384.571Z" fill="#D5D5FB"/>
</g>
<defs>
<clipPath id="clip0_172_204">
<rect width="226.274" height="379.39" fill="white" transform="matrix(-0.961262 -0.275637 -0.275637 0.961262 323.038 62.4595)"/>
</clipPath>
</defs>
</svg>
