<svg width="550" height="395" viewBox="0 0 550 395" fill="none" xmlns="http://www.w3.org/2000/svg">
<path d="M402.798 336.981L402.797 336.982C368.647 356.511 335 373.156 303.263 383.334C271.521 393.514 241.772 397.198 215.376 390.901L215.372 390.9C189.173 384.764 166.274 368.622 144.291 346.246C122.304 323.864 101.309 295.326 78.8837 264.489C56.6435 233.653 33.1775 200.592 17.8792 169.459C2.55438 138.272 -4.41516 109.331 5.85822 86.5755C16.1468 63.7859 43.9803 46.8195 80.3332 34.1574C116.617 21.5192 161.095 13.2674 204.248 7.70945L204.248 7.70938C290.199 -3.4081 370.418 -3.68712 437.016 30.1718C470.321 47.1049 500.145 72.4254 520.626 100.85C541.114 129.285 552.186 160.728 548.192 189.941C544.013 218.999 524.735 246.051 497.885 270.736C471.049 295.409 436.766 317.61 402.798 336.981Z" stroke="#D5D5FB" stroke-width="2"/>
</svg>
