<svg width="550" height="395" viewBox="0 0 550 395" fill="none" xmlns="http://www.w3.org/2000/svg">
<path d="M147.202 58.0186L147.203 58.0181C181.353 38.4887 215 21.8438 246.737 11.6658C278.479 1.48605 308.228 -2.19766 334.624 4.09918L334.628 4.1001C360.827 10.2362 383.726 26.3777 405.709 48.7542C427.696 71.1357 448.691 99.6739 471.116 130.511C493.357 161.347 516.823 194.408 532.121 225.541C547.446 256.728 554.415 285.669 544.142 308.425C533.853 331.214 506.02 348.181 469.667 360.843C433.383 373.481 388.905 381.733 345.752 387.291L345.752 387.291C259.801 398.408 179.582 398.687 112.984 364.828C79.6785 347.895 49.8545 322.575 29.3738 294.15C8.88583 265.715 -2.18625 234.272 1.80812 205.059C5.98685 176.001 25.2649 148.949 52.1148 124.264C78.9507 99.5913 113.234 77.3899 147.202 58.0186Z" stroke="#D5D5FB" stroke-width="2"/>
</svg>
